<svg width="65" height="13" viewBox="0 0 65 13" fill="none" xmlns="http://www.w3.org/2000/svg">
<path d="M4.13636 12H0.0113636V0.363636H4.17045C5.34091 0.363636 6.34848 0.596591 7.19318 1.0625C8.03788 1.52462 8.6875 2.18939 9.14205 3.05682C9.60038 3.92424 9.82955 4.96212 9.82955 6.17045C9.82955 7.38258 9.60038 8.42424 9.14205 9.29545C8.6875 10.1667 8.03409 10.8352 7.18182 11.3011C6.33333 11.767 5.31818 12 4.13636 12ZM2.47159 9.89205H4.03409C4.76136 9.89205 5.37311 9.76326 5.86932 9.50568C6.36932 9.24432 6.74432 8.84091 6.99432 8.29545C7.24811 7.74621 7.375 7.03788 7.375 6.17045C7.375 5.31061 7.24811 4.60795 6.99432 4.0625C6.74432 3.51705 6.37121 3.11553 5.875 2.85795C5.37879 2.60038 4.76705 2.47159 4.03977 2.47159H2.47159V9.89205ZM16.3838 12.1705C15.4861 12.1705 14.7134 11.9886 14.0656 11.625C13.4217 11.2576 12.9255 10.7386 12.577 10.0682C12.2285 9.39394 12.0543 8.59659 12.0543 7.67614C12.0543 6.77841 12.2285 5.99053 12.577 5.3125C12.9255 4.63447 13.416 4.10606 14.0486 3.72727C14.6849 3.34848 15.4312 3.15909 16.2872 3.15909C16.863 3.15909 17.399 3.25189 17.8952 3.4375C18.3952 3.61932 18.8308 3.89394 19.202 4.26136C19.577 4.62879 19.8687 5.09091 20.077 5.64773C20.2853 6.20076 20.3895 6.84848 20.3895 7.59091V8.25568H13.0202V6.75568H18.1111C18.1111 6.4072 18.0353 6.09848 17.8838 5.82955C17.7323 5.56061 17.5221 5.35038 17.2531 5.19886C16.988 5.04356 16.6793 4.96591 16.327 4.96591C15.9596 4.96591 15.6338 5.05114 15.3497 5.22159C15.0694 5.38826 14.8497 5.61364 14.6906 5.89773C14.5315 6.17803 14.4501 6.49053 14.4463 6.83523V8.26136C14.4463 8.69318 14.5259 9.06629 14.6849 9.38068C14.8478 9.69508 15.077 9.9375 15.3724 10.108C15.6679 10.2784 16.0183 10.3636 16.4236 10.3636C16.6925 10.3636 16.9387 10.3258 17.1622 10.25C17.3857 10.1742 17.577 10.0606 17.7361 9.90909C17.8952 9.75758 18.0164 9.57197 18.0997 9.35227L20.3384 9.5C20.2247 10.0379 19.9918 10.5076 19.6395 10.9091C19.291 11.3068 18.8402 11.6174 18.2872 11.8409C17.738 12.0606 17.1035 12.1705 16.3838 12.1705ZM30.671 3.27273L27.6199 12H24.8926L21.8415 3.27273H24.3983L26.2108 9.51705H26.3017L28.1085 3.27273H30.671ZM43.0222 4.4375H40.5335C40.4881 4.11553 40.3953 3.82955 40.2551 3.57955C40.115 3.32576 39.935 3.10985 39.7153 2.93182C39.4956 2.75379 39.2419 2.61742 38.954 2.52273C38.6699 2.42803 38.3612 2.38068 38.0278 2.38068C37.4256 2.38068 36.9009 2.5303 36.454 2.82955C36.007 3.125 35.6604 3.55682 35.4142 4.125C35.168 4.68939 35.0449 5.375 35.0449 6.18182C35.0449 7.01136 35.168 7.70833 35.4142 8.27273C35.6642 8.83712 36.0127 9.26326 36.4597 9.55114C36.9066 9.83902 37.4237 9.98295 38.0108 9.98295C38.3403 9.98295 38.6453 9.93939 38.9256 9.85227C39.2097 9.76515 39.4616 9.63826 39.6813 9.47159C39.9009 9.30114 40.0828 9.0947 40.2267 8.85227C40.3744 8.60985 40.4767 8.33333 40.5335 8.02273L43.0222 8.03409C42.9578 8.56818 42.7968 9.08333 42.5392 9.57955C42.2854 10.072 41.9426 10.5133 41.5108 10.9034C41.0828 11.2898 40.5714 11.5966 39.9767 11.8239C39.3858 12.0473 38.7172 12.1591 37.971 12.1591C36.9331 12.1591 36.0051 11.9242 35.1869 11.4545C34.3725 10.9848 33.7286 10.3049 33.2551 9.41477C32.7854 8.52462 32.5506 7.44697 32.5506 6.18182C32.5506 4.91288 32.7892 3.83333 33.2665 2.94318C33.7438 2.05303 34.3915 1.375 35.2097 0.909091C36.0278 0.439394 36.9483 0.204545 37.971 0.204545C38.6453 0.204545 39.2703 0.299242 39.846 0.488636C40.4256 0.67803 40.9388 0.954545 41.3858 1.31818C41.8328 1.67803 42.1964 2.11932 42.4767 2.64205C42.7608 3.16477 42.9426 3.76326 43.0222 4.4375ZM49.4841 12.1705C48.6015 12.1705 47.8383 11.983 47.1943 11.608C46.5542 11.2292 46.0598 10.7027 45.7114 10.0284C45.3629 9.35038 45.1886 8.56439 45.1886 7.67045C45.1886 6.76894 45.3629 5.98106 45.7114 5.30682C46.0598 4.62879 46.5542 4.10227 47.1943 3.72727C47.8383 3.34848 48.6015 3.15909 49.4841 3.15909C50.3667 3.15909 51.128 3.34848 51.7682 3.72727C52.4121 4.10227 52.9083 4.62879 53.2568 5.30682C53.6053 5.98106 53.7795 6.76894 53.7795 7.67045C53.7795 8.56439 53.6053 9.35038 53.2568 10.0284C52.9083 10.7027 52.4121 11.2292 51.7682 11.608C51.128 11.983 50.3667 12.1705 49.4841 12.1705ZM49.4955 10.2955C49.897 10.2955 50.2322 10.1818 50.5011 9.95455C50.7701 9.72348 50.9727 9.40909 51.1091 9.01136C51.2492 8.61364 51.3193 8.16098 51.3193 7.65341C51.3193 7.14583 51.2492 6.69318 51.1091 6.29545C50.9727 5.89773 50.7701 5.58333 50.5011 5.35227C50.2322 5.12121 49.897 5.00568 49.4955 5.00568C49.0902 5.00568 48.7492 5.12121 48.4727 5.35227C48.2 5.58333 47.9936 5.89773 47.8534 6.29545C47.717 6.69318 47.6489 7.14583 47.6489 7.65341C47.6489 8.16098 47.717 8.61364 47.8534 9.01136C47.9936 9.40909 48.2 9.72348 48.4727 9.95455C48.7492 10.1818 49.0902 10.2955 49.4955 10.2955ZM58.5739 6.95455V12H56.1534V3.27273H58.4602V4.8125H58.5625C58.7557 4.30492 59.0795 3.90341 59.5341 3.60795C59.9886 3.30871 60.5398 3.15909 61.1875 3.15909C61.7936 3.15909 62.322 3.29167 62.7727 3.55682C63.2235 3.82197 63.5739 4.20076 63.8239 4.69318C64.0739 5.18182 64.1989 5.76515 64.1989 6.44318V12H61.7784V6.875C61.7822 6.34091 61.6458 5.92424 61.3693 5.625C61.0928 5.32197 60.7121 5.17045 60.2273 5.17045C59.9015 5.17045 59.6136 5.24053 59.3636 5.38068C59.1174 5.52083 58.9242 5.72538 58.7841 5.99432C58.6477 6.25947 58.5777 6.57955 58.5739 6.95455Z" fill="white"/>
</svg>
