<svg width="300" height="305" viewBox="0 0 300 305" fill="none" xmlns="http://www.w3.org/2000/svg">
<path d="M43.8013 0.930321C44.1679 2.23944 44.8486 5.3115 45.477 8.57557C48.7585 25.5766 49.6487 29.4516 51.5164 34.6008C52.7382 37.9696 54.955 41.7922 56.9448 44.009C57.4685 44.585 58.9347 45.8418 60.2089 46.7843C62.9493 48.844 64.0664 50.0135 65.7421 52.527C66.737 54.0456 67.0338 54.3772 67.348 54.3423C67.8018 54.2899 67.8018 54.2899 70.7866 61.0275C71.8688 63.4189 73.0208 65.9847 73.3524 66.7004C73.6841 67.416 75.1328 70.4881 76.5467 73.5078C77.978 76.5275 79.5838 79.9486 80.1249 81.1007C81.3468 83.6665 82.3417 85.7786 83.0923 87.3844C83.9476 89.2346 87.1942 96.0246 89.1491 100.039C91.9419 105.764 95.2758 112.729 96.1136 114.579C96.5325 115.522 97.0213 116.377 97.1784 116.464C97.4402 116.604 98.5399 116.237 99.2031 115.784C99.4999 115.574 99.6046 115.784 94.3507 105.45C89.952 96.7926 75.6739 68.3411 75.6739 68.2015C75.6739 68.184 74.5219 65.7927 73.1255 62.9301C69.9138 56.3496 68.884 54.2027 68.8316 53.8187C68.7618 53.3823 72.6193 51.4099 72.9335 51.7241C73.0557 51.8463 73.7714 53.1205 74.5394 54.5692C75.2899 56.0005 76.0754 57.5016 76.2849 57.8856C76.5118 58.2697 77.018 59.2122 77.4194 59.9802C77.8383 60.7483 78.7111 62.389 79.3918 63.6458C80.0551 64.8851 81.1199 66.8924 81.7482 68.0968C82.3766 69.3012 83.5985 71.6052 84.4887 73.246C85.3789 74.8693 86.7403 77.4351 87.5433 78.9188C88.3287 80.4025 89.603 82.7589 90.3361 84.1553C91.0866 85.5517 92.8845 88.9554 94.3507 91.7482C97.7718 98.2763 98.6795 99.9694 99.1508 100.825C99.3602 101.209 100.006 102.431 100.582 103.53C101.158 104.63 102.31 106.847 103.148 108.452C103.986 110.058 104.754 111.42 104.841 111.49C104.928 111.542 104.998 111.769 104.998 112.013C104.998 112.554 105.365 112.554 106.342 111.996C107.075 111.542 107.25 111.315 106.936 111.141C106.848 111.088 106.813 110.896 106.848 110.722C106.953 110.268 106.185 109.029 105.784 109.029C105.504 109.029 105.417 108.871 105.33 108.208C105.26 107.754 104.928 106.899 104.597 106.288C104.265 105.677 103.584 104.438 103.078 103.53C102.572 102.623 101.944 101.471 101.682 100.999C100.041 97.9796 99.1508 96.4086 98.8715 95.9897C98.6795 95.7453 98.5399 95.4835 98.5399 95.4137C98.5399 95.3613 98.1035 94.5409 97.5798 93.6333C97.0562 92.7082 96.6198 91.9227 96.6198 91.8878C96.6198 91.7831 93.6176 86.372 92.867 85.1153C92.4656 84.4346 91.8895 83.4047 91.5754 82.7938C91.2786 82.2003 90.7375 81.2578 90.3884 80.6992C89.4633 79.2679 87.9098 76.4577 86.0072 72.7223C85.8501 72.4256 85.4661 71.7797 85.152 71.291C84.8203 70.7848 84.2618 69.7899 83.9127 69.1091C83.0923 67.5208 81.2944 64.4312 80.9977 64.0821C80.8755 63.9425 80.282 62.9127 79.6886 61.813C79.0776 60.7133 78.2573 59.2995 77.8558 58.6711C77.4718 58.0427 76.6514 56.6289 76.0754 55.5292C74.295 52.2128 74.1903 52.0383 73.9808 52.0383C73.8412 52.0383 73.7539 51.8113 73.7539 51.5321C73.7539 51.1306 73.8761 50.9386 74.2775 50.6942C74.5743 50.5371 74.8012 50.3277 74.8012 50.2579C74.8012 50.188 74.6092 49.6818 74.3648 49.1582C73.1081 46.2956 72.5321 43.5552 72.5321 40.3435C72.5321 36.7827 71.9386 34.3041 70.2629 30.7607C68.6571 27.4094 66.6323 24.4595 63.1239 20.41C60.5929 17.4776 59.3536 16.151 53.2619 9.88468C48.0079 4.49112 46.1926 2.57108 45.0057 1.19214C44.3599 0.441584 43.6093 0.284489 43.8013 0.930321ZM57.9572 32.4015C59.3012 34.8452 61.5529 39.366 62.5129 41.5653L62.9319 42.5253L62.5479 42.0715C62.3209 41.8097 61.9195 41.3384 61.6577 41.0242C61.1515 40.3958 61.134 40.4657 61.518 41.7399L61.6926 42.3508L61.0118 41.5653C60.4184 40.902 60.3311 40.8497 60.4882 41.2511C60.5755 41.513 60.8024 42.0366 61.0118 42.4206C61.5529 43.5028 61.4307 43.6075 60.6278 42.7697C60.2089 42.3508 59.79 42.0017 59.6678 42.0017C58.8998 42.0017 54.571 34.3914 54.2742 32.5062C54.2044 32.1048 54.0822 31.7382 54.0124 31.6859C53.803 31.5637 53.8204 30.9527 54.0299 30.8829C54.1346 30.848 53.9426 30.08 53.5935 29.1025C53.2444 28.1425 52.9826 27.2523 53.0175 27.1127C53.0524 26.9556 53.5062 27.6363 54.0299 28.6138C55.0248 30.4466 55.3041 30.6735 54.8328 29.2596C54.5186 28.352 54.5012 28.2996 54.6932 28.2996C54.763 28.2996 55.1295 28.8931 55.5135 29.6262C56.6481 31.808 56.4561 30.5862 55.1993 27.776C54.379 25.9257 54.5361 25.9606 55.5135 27.8632C56.0721 28.9105 57.1543 30.9527 57.9572 32.4015ZM58.8823 30.3942C60.4184 33.1695 63.6824 39.558 63.9617 40.3435C64.8345 42.8919 59.9994 34.1295 57.7129 29.0502C56.299 25.9083 56.5608 26.205 58.8823 30.3942ZM61.4133 31.5637C63.1762 34.8103 65.1312 38.79 64.6948 38.2489C64.5028 38.0045 64.0141 37.1492 63.6126 36.3289C63.2111 35.5085 62.8446 34.8103 62.7748 34.7579C62.67 34.6706 60.3485 30.0975 60.1042 29.4865C59.7725 28.6487 60.2264 29.3993 61.4133 31.5637ZM60.6976 32.1397C61.8148 34.1644 63.8046 38.1442 63.8046 38.3711C63.8046 38.4234 63.6126 38.3013 63.3682 38.0743C63.1239 37.8474 62.9319 37.5332 62.9319 37.3761C62.9319 37.2365 62.8097 36.9223 62.6526 36.7129C62.2686 36.1543 59.2663 30.2022 59.2663 29.9753C59.2663 29.6436 59.5805 30.1149 60.6976 32.1397ZM60.4358 35.6656C61.134 37.062 61.71 38.3187 61.71 38.4584C61.71 38.6853 61.3609 38.1791 61.0293 37.4285C60.942 37.2365 60.7849 37.027 60.7151 36.9747C60.5056 36.8525 58.2889 32.3491 58.1318 31.7906C57.9398 31.0226 59.0918 32.9601 60.4358 35.6656ZM55.6881 36.9049C56.5085 38.5631 56.875 39.4707 56.7354 39.4707C56.7005 39.4707 56.2641 38.7551 55.7754 37.8823C54.9375 36.4336 54.4313 35.0896 54.7106 35.107C54.763 35.1245 55.2168 35.9274 55.6881 36.9049Z" fill="white"/>
<path d="M60.8374 39.9768C60.8374 40.0641 60.9247 40.2037 61.012 40.2561C61.1167 40.3084 61.1865 40.291 61.1865 40.1863C61.1865 40.099 61.1167 39.9593 61.012 39.907C60.9247 39.8546 60.8374 39.8721 60.8374 39.9768Z" fill="white"/>
<path d="M0.0070425 33.0124C-0.0453222 33.0996 0.199046 33.6407 0.583054 34.1818C1.56053 35.648 2.86965 37.9172 5.73225 43.0489C10.7418 52.0731 11.1084 52.684 13.6742 56.751C17.4794 62.7206 20.15 65.845 23.8853 68.6378C25.8403 70.104 27.3414 70.8371 30.3786 71.8495C31.7051 72.2859 33.3284 72.9317 33.9568 73.2634C35.1787 73.9441 37.3605 75.4976 38.2682 76.3529C38.7744 76.8242 38.8966 76.8591 39.2631 76.6845C39.6471 76.51 39.7518 76.5449 40.1708 77.0511C40.9388 77.9936 43.7839 81.0308 44.4996 81.6941C44.8661 82.0432 45.285 82.4621 45.4596 82.6366C45.6167 82.8112 46.1578 83.3872 46.664 83.9108C47.1527 84.4519 47.5716 84.9581 47.5716 85.0454C47.5716 85.1327 47.7811 85.2898 48.0255 85.3771C48.2698 85.4818 48.4269 85.6214 48.3571 85.7262C48.2698 85.8483 49.2997 87.0353 51.6735 89.4964C51.8655 89.6884 53.1572 91.0674 54.5536 92.551C63.7174 102.273 65.4629 104.089 78.0304 116.796C82.1672 120.985 85.8328 124.633 86.1993 124.912C86.5484 125.209 86.8975 125.576 86.9499 125.733C87.1244 126.309 87.8401 126.047 88.3114 125.227C88.3986 125.069 88.3463 125.035 88.1717 125.104C88.0146 125.157 87.8924 125.122 87.8924 125.017C87.8924 124.912 87.7703 124.825 87.6306 124.825C87.4735 124.825 87.3688 124.668 87.3688 124.406C87.3688 124.075 86.304 122.888 83.1273 119.641C80.8058 117.25 76.3198 112.589 73.1431 109.29C67.6099 103.53 56.0722 91.7656 49.0728 84.7487C44.5694 80.2453 40.4151 75.8292 40.4151 75.5674C40.4151 75.3056 43.2254 72.2859 43.4523 72.2859C43.6094 72.2859 44.4821 73.0539 47.1353 75.5849C48.008 76.4052 50.9404 79.198 53.6808 81.7988C56.4038 84.3821 60.6454 88.4317 63.1065 90.7881C65.5676 93.1445 69.111 96.5133 70.9787 98.2762C72.8463 100.057 76.0929 103.164 78.205 105.188C80.317 107.213 83.2669 110.006 84.7506 111.385C86.2342 112.781 88.8176 115.225 90.4932 116.831C92.1689 118.454 93.6002 119.763 93.67 119.763C93.9667 119.763 95.0489 118.227 94.9442 117.948C94.8744 117.738 94.7522 117.721 94.5253 117.843C94.2984 117.965 94.1587 117.93 94.0017 117.756C93.8795 117.616 93.8271 117.494 93.8969 117.494C94.3158 117.494 92.2387 115.312 89.4634 112.851C88.9397 112.38 87.683 111.21 86.6706 110.25C84.9077 108.592 82.3069 106.201 77.3322 101.697C74.1729 98.8173 71.7118 96.5656 69.6521 94.6282C68.6746 93.7205 66.5102 91.7481 64.8345 90.247C59.0744 85.0629 55.8627 82.1479 54.379 80.7515C53.5587 79.966 52.5812 79.1108 52.1972 78.8315C51.4466 78.2904 50.2073 77.1733 47.6415 74.747C45.4421 72.6699 45.2501 72.5128 44.7265 72.2684C44.4647 72.1462 44.3076 71.9892 44.3599 71.9193C44.4123 71.8321 44.3599 71.7622 44.2552 71.7622C44.1505 71.7622 44.2901 71.4655 44.5868 71.1164L45.1105 70.488L44.0981 69.336C42.8937 67.9571 41.4624 65.8625 40.869 64.5708C40.6246 64.0646 40.1184 62.773 39.7518 61.7257C38.6173 58.514 37.7794 57.0652 35.4928 54.3772C32.9793 51.3924 29.7153 48.8614 23.9377 45.4228C21.1624 43.7646 18.387 42.2809 9.86906 37.8474C6.27335 35.9797 2.71255 34.0946 1.96199 33.6407C0.583054 32.8204 0.199046 32.6982 0.0070425 33.0124ZM21.5115 54.5866C26.3116 59.0376 30.9022 63.5584 31.5655 64.5185C31.9146 65.0072 31.9146 65.0246 31.6004 64.7803C29.5058 63.2268 20.3245 54.1328 20.8307 54.1328C20.9355 54.1328 21.2497 54.3422 21.5115 54.5866ZM22.0875 57.554C25.4039 60.6784 31.2164 66.5258 31.1291 66.6305C31.0244 66.7352 29.5233 65.7228 28.6331 64.9723C28.0571 64.4661 28.2142 64.7105 29.3836 66.0719C30.1866 67.0145 30.2215 67.2763 29.4709 66.7527C28.5633 66.1243 28.4236 66.0545 28.7203 66.4559C28.86 66.6305 29.2789 67.1018 29.628 67.4858C30.3786 68.2887 30.204 68.4982 29.2789 67.8873C28.9298 67.6429 28.3887 67.3985 28.0745 67.3461C26.8701 67.1018 21.2671 62.1446 20.0627 60.242C19.2947 59.0376 19.1202 58.6536 19.2249 58.4791C19.2772 58.3918 19.1725 58.3743 19.0154 58.4442C18.7711 58.5314 18.7361 58.4965 18.8234 58.2521C18.9107 58.0252 18.7012 57.6238 18.1078 56.8558C17.6539 56.2797 17.0954 55.5117 16.851 55.1801L16.4496 54.5692L16.9557 55.023C17.235 55.2674 18.003 55.983 18.6838 56.6288C19.3471 57.2572 19.9231 57.746 19.958 57.711C19.9929 57.6761 19.7834 57.2921 19.4693 56.8558C19.1725 56.4194 18.9805 56.0528 19.0503 56.0528C19.1202 56.0528 19.6787 56.5067 20.3071 57.0478C20.9355 57.6063 21.3544 57.8856 21.2497 57.6761C21.1275 57.4667 20.9355 57.2049 20.8133 57.0652C20.4991 56.7336 19.0678 54.9706 18.7711 54.5692C18.5092 54.2026 19.1202 54.7437 22.0875 57.554ZM29.3313 59.7707C30.7626 61.202 31.8622 62.3366 31.74 62.3017C31.4608 62.2319 25.0548 56.0005 25.0548 55.791C25.0548 55.599 25.7705 56.2623 29.3313 59.7707ZM27.7603 59.4914C30.7451 62.4588 32.2288 64.0123 31.3386 63.2966C29.2265 61.5686 23.833 56.2972 23.833 55.9656C23.833 55.7212 24.9501 56.7336 27.7603 59.4914ZM26.1021 60.4515C27.4985 61.8304 28.7902 63.1395 28.9822 63.3839L29.3313 63.8203L28.8949 63.4712C28.3887 63.0697 25.3516 60.3293 24.8104 59.7882C24.025 59.0202 22.9079 57.5889 23.2221 57.7634C23.4141 57.8681 24.7057 59.0725 26.1021 60.4515ZM22.9951 64.1519C24.3566 65.4959 25.2294 66.4385 24.8977 66.2465C24.5835 66.0719 24.1821 65.7403 24.0075 65.5134C23.833 65.3039 23.6235 65.1294 23.5537 65.1294C23.3966 65.1294 20.8133 62.5286 20.342 61.9177C19.7136 61.0973 20.6736 61.9002 22.9951 64.1519Z" fill="white"/>
<path d="M220.462 55.3719C218.682 55.6162 212.555 56.6635 208.942 57.3792C205.486 58.0425 197.108 60.0672 197.23 60.2069C197.282 60.2418 198.172 60.0847 199.202 59.8403C200.232 59.596 201.436 59.3516 201.855 59.2818C202.292 59.2294 202.99 59.0723 203.426 58.9327C204.247 58.6883 209.396 57.7807 210.338 57.7108C210.635 57.6934 211.141 57.6061 211.473 57.5363C211.927 57.449 212.014 57.4665 211.822 57.6061C211.683 57.7108 211.368 57.7981 211.141 57.7981C210.845 57.7981 210.757 57.8505 210.88 57.9727C211.002 58.0948 211.421 58.0076 212.154 57.7108C212.765 57.4665 213.341 57.2919 213.463 57.3443C213.568 57.3792 213.498 57.4316 213.306 57.449C212.992 57.4665 212.974 57.4665 213.253 57.641C213.48 57.7632 213.934 57.6934 214.929 57.3792C216.256 56.9603 219.677 56.1399 221.841 55.7035C224.075 55.2497 227.252 55.5464 228.282 56.297C228.544 56.489 228.753 56.681 228.753 56.7334C228.753 56.7857 228.422 56.8555 228.003 56.8555C227.601 56.873 226.676 57.0476 225.961 57.2396C225.245 57.449 224.058 57.7283 223.342 57.8854C220.969 58.3916 218.909 58.8629 217.67 59.212C216.186 59.6309 215.942 59.6832 212.433 60.5036C210.897 60.8702 209.588 61.2542 209.518 61.3589C209.448 61.4636 209.378 61.2542 209.378 60.8876C209.378 60.1371 210.059 59.2992 211.089 58.7756C211.717 58.4614 211.84 58.2345 211.299 58.3741C211.107 58.4265 210.897 58.3916 210.845 58.3043C210.792 58.217 210.618 58.217 210.443 58.3218C210.269 58.409 210.077 58.4265 210.007 58.3741C209.954 58.3218 209.902 58.3392 209.902 58.4265C209.902 58.5312 209.989 58.6883 210.077 58.7756C210.199 58.8978 210.112 58.9327 209.78 58.8978C209.448 58.8454 209.152 58.9501 208.872 59.177C208.645 59.3865 208.331 59.5436 208.192 59.5436C208.034 59.5436 207.79 59.6483 207.65 59.7705C207.493 59.9102 206.621 60.1894 205.713 60.4163C203.706 60.9051 200.93 61.7255 200.215 62.0746C199.935 62.1967 199.499 62.3538 199.255 62.4062C199.01 62.4411 198.12 62.7378 197.282 63.0346C196.427 63.3313 195.607 63.5582 195.449 63.5408C194.961 63.471 193.145 63.9422 193.145 64.1342C193.145 64.239 193.093 64.2739 193.041 64.2215C192.988 64.1517 192.692 64.2215 192.36 64.3437C192.046 64.4833 191.749 64.5532 191.697 64.5008C191.609 64.3961 190.021 64.8673 189.218 65.2164C188.939 65.3561 187.996 65.6703 187.123 65.9146C186.268 66.1765 185.361 66.4557 185.116 66.5605C184.872 66.6477 184.505 66.7699 184.296 66.8048C183.283 66.9968 184.296 65.6005 185.954 64.5008C186.53 64.1342 187.141 63.7153 187.315 63.5931C187.507 63.4884 187.141 63.628 186.513 63.9248C184.383 64.9546 182.742 66.2114 182.411 67.0841C182.236 67.5379 182.969 68.2187 183.859 68.4456C184.715 68.6376 185.081 68.6201 189.934 68.0965C191.836 67.887 193.372 67.922 192.674 68.1838C192.342 68.2885 192.273 68.4456 192.273 69.074C192.273 69.8071 192.29 69.842 192.814 69.842C193.128 69.842 193.303 69.9118 193.233 70.0165C193.163 70.1213 193.041 70.1387 192.936 70.0864C192.831 70.0165 192.796 70.034 192.849 70.1387C192.918 70.2435 192.726 70.5227 192.43 70.7846C191.4 71.7097 192.22 72.146 195.153 72.2508C198.801 72.373 203.549 71.6573 208.96 70.1736C210.391 69.7722 212.101 69.3358 212.765 69.1787C213.445 69.0391 214.091 68.8122 214.213 68.69C214.353 68.5678 214.981 68.2885 215.627 68.0965C216.273 67.9045 216.954 67.6776 217.146 67.5903C217.809 67.2936 219.066 66.9096 219.328 66.927C219.467 66.927 220.148 66.6827 220.811 66.4034C221.492 66.1066 222.243 65.8274 222.505 65.7575C222.784 65.6877 222.941 65.5655 222.906 65.4259C222.836 65.2514 224.704 64.2215 228.195 62.5458C228.526 62.3888 228.91 62.1095 229.068 61.9C229.242 61.708 229.574 61.4462 229.853 61.3415C230.342 61.1145 230.447 60.8702 230.132 60.6782C230.028 60.6084 230.115 60.3465 230.377 59.9974C230.988 59.212 231.389 57.9552 231.215 57.3443C231.057 56.7508 229.905 55.8083 228.963 55.5115C228.16 55.2497 222.155 55.145 220.462 55.3719ZM210.775 58.5661C210.775 58.6185 210.705 58.7058 210.6 58.7581C210.513 58.8105 210.426 58.7756 210.426 58.6883C210.426 58.5836 210.513 58.4963 210.6 58.4963C210.705 58.4963 210.775 58.5312 210.775 58.5661ZM205.521 65.8797C205.486 65.9146 204.823 66.2114 204.055 66.543C203.287 66.8572 202.623 67.1714 202.571 67.2238C202.397 67.4158 201.489 67.7474 201.157 67.7474C200.965 67.7474 200.843 67.8172 200.895 67.887C200.948 67.9743 200.616 68.1314 200.162 68.2536C199.726 68.3583 198.888 68.6551 198.295 68.882C197.719 69.0914 196.706 69.4929 196.025 69.7547C195.362 70.0165 194.699 70.3133 194.577 70.418C194.455 70.5053 194.315 70.5402 194.263 70.5053C194.21 70.4529 194.542 70.1038 194.978 69.7198C196.514 68.4107 199.586 67.1365 203.531 66.1765C205.207 65.7575 205.783 65.6877 205.521 65.8797Z" fill="white"/>
<path d="M212.52 57.7985C212.52 57.8683 212.346 57.973 212.136 58.0254C211.927 58.0952 211.787 58.1825 211.84 58.2349C211.892 58.2872 212.241 58.2174 212.608 58.0952C213.201 57.8858 213.236 57.8508 212.904 57.7636C212.695 57.6937 212.52 57.7112 212.52 57.7985Z" fill="white"/>
<path d="M270.261 61.8305C269.615 61.9178 267.957 62.232 266.596 62.5462C264.327 63.0349 263.803 63.0873 260.87 63.1222C258.148 63.1396 257.432 63.192 256.332 63.5236C253.784 64.2393 250.939 65.6357 247.814 67.7128C244.969 69.5979 244.376 70.8547 245.161 73.3682C245.737 75.1835 245.685 75.393 244.323 77.1734C243.171 78.7094 243.224 80.1756 244.463 81.5895C245.877 83.1953 247.867 83.8237 250.275 83.4048C252.859 82.9509 255.198 81.7989 259.998 78.6396C262.983 76.6672 263.646 76.3006 264.204 76.3006C264.396 76.3006 264.588 76.1959 264.623 76.0737C264.676 75.969 264.972 75.8468 265.304 75.8293C265.618 75.7944 266.159 75.6548 266.508 75.5152C266.858 75.3755 267.311 75.2533 267.503 75.2533C267.695 75.2533 267.852 75.1835 267.852 75.0962C267.852 75.009 268.114 74.8868 268.446 74.8344C268.795 74.7646 269.092 74.59 269.144 74.4155C269.301 73.9442 270.366 73.5777 274.241 72.6351C279.373 71.3783 281.607 70.4183 283.003 68.8997C283.981 67.8525 284.435 66.875 284.435 65.8975C284.435 63.7331 282.567 62.5287 278.308 61.9003C276.301 61.6211 272.216 61.5861 270.261 61.8305ZM259.369 64.6757C259.963 65.0771 259.98 65.0946 259.596 65.2168L259.212 65.3389L259.631 65.4611L260.033 65.5659L259.474 66.1244C259.16 66.4211 258.95 66.7353 259.003 66.8226C259.195 67.1193 257.519 68.6205 257.013 68.6205C256.891 68.6205 256.646 68.7601 256.454 68.9172C256.018 69.3361 254.744 69.2838 253.662 68.8125C252.073 68.1317 250.851 68.3237 249.263 69.4932C248.111 70.3485 247.099 70.7849 246.802 70.5405C246.435 70.2263 246.488 70.0867 247.273 69.2314C249.228 67.1193 252.684 65.1469 255.547 64.5186C257.292 64.1346 258.654 64.1869 259.369 64.6757ZM266.159 69.2488C266.962 69.5281 266.98 69.5281 266.98 70.2961C266.98 70.7151 266.927 71.0467 266.858 71.0292C266.474 70.9071 260.661 72.862 258.689 73.7697C258.025 74.0839 256.803 74.7297 255.983 75.201C255.163 75.6722 254.028 76.1959 253.452 76.3704C252.876 76.545 252.318 76.7719 252.195 76.8592C252.073 76.9639 251.881 76.9988 251.759 76.9465C251.637 76.9115 251.218 77.0337 250.834 77.2257C250.45 77.4352 250.083 77.5748 250.014 77.5574C249.944 77.5399 249.28 77.7668 248.547 78.0461C247.832 78.3428 247.151 78.5348 247.064 78.4825C246.976 78.4127 246.907 78.465 246.907 78.5523C246.907 78.9014 246.61 78.7443 246.418 78.3079C246.104 77.6097 246.173 76.7544 246.61 76.1086C247.133 75.3231 247.657 75.0788 248.844 75.0788C249.612 75.0788 249.961 75.1835 250.624 75.6024C251.34 76.0563 251.497 76.0912 252.003 75.9166C252.318 75.8119 252.702 75.6199 252.859 75.4977C252.998 75.3581 253.19 75.2533 253.278 75.2533C253.347 75.2533 254.307 74.3108 255.407 73.1587C257.502 70.9769 258.601 70.174 260.434 69.5281C261.743 69.0568 262.023 69.0219 263.855 68.987C264.815 68.9696 265.636 69.0743 266.159 69.2488Z" fill="white"/>
<path d="M258.252 67.3987C258.095 67.5034 258.078 67.5732 258.2 67.5732C258.305 67.5732 258.462 67.486 258.514 67.3987C258.654 67.1892 258.584 67.1892 258.252 67.3987Z" fill="white"/>
<path d="M152.039 72.1985C148.601 72.8269 145.406 74.5375 142.038 77.5572C141.514 78.011 140.187 79.0409 139.088 79.8263C135.457 82.4271 134.375 83.7362 134.532 85.3595C134.707 87.0876 135.998 88.065 138.075 88.0825C139.175 88.0825 139.472 87.9952 141.008 87.2621C142.16 86.7036 143.032 86.4068 143.626 86.3545C144.132 86.3195 144.411 86.3195 144.272 86.3894C144.115 86.4417 144.307 86.5639 144.795 86.7036C145.232 86.8257 146.017 87.0876 146.541 87.2796C147.641 87.681 147.675 87.7508 147.361 89.6011C147.117 91.0673 147.431 91.8877 148.374 92.2891C150.032 92.9873 152.668 92.3938 158.759 89.9502C161.465 88.868 166.684 86.9479 168.621 86.337C174.643 84.3995 177.506 83.0555 179.199 81.3798C180.683 79.8961 181.171 78.8838 181.241 77.1557C181.329 75.4451 180.892 74.3455 179.688 73.2633C178.483 72.1811 177.366 71.8669 175.097 71.9716C173.526 72.0589 172.968 72.1811 170.035 73.1411C164.764 74.8691 163.263 74.939 160.208 73.5426C156.839 72.0065 154.849 71.6749 152.039 72.1985ZM177.733 72.7047C178.326 73.0364 178.256 73.0538 176.302 73.0713C175.446 73.0713 174.539 73.1411 174.312 73.2109C173.718 73.368 172.409 73.1586 172.776 72.9665C173.963 72.3033 176.72 72.1462 177.733 72.7047ZM155.757 73.0015C156.159 73.1236 156.525 73.2633 156.56 73.3156C156.612 73.3855 155.356 73.4204 153.785 73.4204C151.324 73.4204 150.992 73.3855 151.358 73.1935C152.336 72.6698 154.204 72.6 155.757 73.0015ZM172.374 73.2284C172.374 73.2633 172.252 73.3506 172.095 73.4029C171.955 73.4553 171.885 73.4378 171.938 73.3331C172.043 73.1586 172.374 73.0887 172.374 73.2284ZM147.937 75.1659C148.67 75.5499 148.653 75.7942 147.867 76.4401C147.466 76.7717 147.082 77.1383 147.012 77.2779C146.942 77.4175 146.785 77.5223 146.698 77.5223C146.593 77.5223 145.878 77.9586 145.11 78.4823C144.342 79.0059 143.678 79.4423 143.643 79.4423C143.591 79.4423 143.224 79.582 142.823 79.774C141.863 80.1929 141.304 80.3674 141.304 80.2278C141.304 80.158 141.584 79.7914 141.915 79.3899C142.247 78.9885 142.963 78.1332 143.486 77.4874C144.481 76.283 145.529 75.4451 146.454 75.1135C147.169 74.8691 147.361 74.8691 147.937 75.1659ZM140.606 80.6642C140.275 80.9609 139.891 81.1878 139.751 81.1878C139.437 81.1878 139.559 81.0656 140.379 80.5594C141.27 80.0183 141.339 80.0532 140.606 80.6642ZM156.787 82.6889C156.735 82.7413 156.577 82.7587 156.455 82.7064C156.316 82.654 156.368 82.6017 156.56 82.6017C156.752 82.5842 156.857 82.6366 156.787 82.6889ZM156.141 82.8984C156.141 82.9682 155.373 83.422 154.448 83.8933C152.231 85.0279 150.678 85.9181 150.521 86.145C150.433 86.2672 150.381 86.2672 150.381 86.1625C150.381 86.0577 150.294 86.1101 150.206 86.2497C150.067 86.4766 150.032 86.4766 150.032 86.2672C150.032 85.8134 151.708 84.3821 152.86 83.8235C154.78 82.9158 156.141 82.5318 156.141 82.8984Z" fill="white"/>
<path d="M270.82 92.778C269.354 93.0922 267.259 93.8951 264.728 95.1519C259.823 97.5781 257.414 98.3287 253.976 98.5556C250.083 98.7999 248.286 99.5505 244.69 102.448C241.845 104.717 240.797 106.183 240.797 107.894C240.797 108.924 241.042 109.465 242.194 110.966C242.7 111.629 243.206 112.554 243.503 113.41C244.341 115.801 244.934 116.936 245.877 117.931C248.163 120.357 251.043 120.653 256.751 119.03C260.748 117.913 263.209 116.761 265.199 115.085C266.351 114.108 266.98 113.235 268.551 110.512C270.069 107.876 271.117 106.532 272.391 105.642C273.368 104.944 273.874 104.7 276.929 103.356C279.669 102.151 280.717 101.139 281.136 99.2712C281.659 96.8799 279.792 94.2093 276.772 93.0922C275.341 92.5685 272.565 92.4114 270.82 92.778ZM277.488 94.6631C277.819 94.9773 278.256 95.4661 278.43 95.7628C278.622 96.077 278.43 95.9373 277.924 95.3788C277.348 94.7504 276.999 94.506 276.807 94.5759C276.632 94.6457 276.562 94.6108 276.632 94.506C276.702 94.4013 276.65 94.2617 276.545 94.2268C276.388 94.1569 276.405 94.122 276.597 94.122C276.737 94.1046 277.138 94.3664 277.488 94.6631ZM247.657 102.343C247.622 102.413 247.71 102.431 247.849 102.378C248.006 102.308 248.163 102.396 248.233 102.553C248.286 102.71 248.408 102.797 248.478 102.745C248.704 102.605 249.193 103.286 249.071 103.583C249.019 103.757 248.896 103.844 248.827 103.792C248.547 103.617 248.286 104.228 248.268 105.084C248.268 105.572 248.198 106.026 248.111 106.079C248.024 106.131 247.954 106.306 247.954 106.48C247.954 106.637 247.797 106.951 247.605 107.161C247.186 107.615 247.116 108.051 247.517 107.719C247.727 107.545 247.779 107.545 247.779 107.789C247.779 107.946 247.692 108.068 247.587 108.068C247.5 108.068 247.448 108.121 247.5 108.208C247.535 108.278 247.483 108.522 247.36 108.749C247.203 109.011 247.081 109.098 247.011 108.959C246.941 108.854 246.976 108.767 247.064 108.767C247.168 108.767 247.256 108.714 247.256 108.627C247.256 108.557 246.418 108.487 245.405 108.47C244.219 108.435 243.451 108.348 243.276 108.208C242.892 107.876 242.543 106.951 242.543 106.253C242.543 105.695 243.136 104.403 243.381 104.403C243.451 104.403 243.782 104.141 244.114 103.809C244.463 103.495 244.934 103.164 245.161 103.094C245.405 103.024 245.65 102.884 245.702 102.797C245.755 102.71 246.051 102.605 246.348 102.57C246.941 102.5 247.692 102.151 247.291 102.134C247.168 102.134 247.116 102.064 247.168 101.959C247.238 101.855 247.36 101.872 247.5 102.012C247.64 102.116 247.71 102.273 247.657 102.343Z" fill="white"/>
<path d="M107.617 112.083C107.477 112.17 107.198 112.258 107.006 112.258C106.412 112.275 105.819 112.676 105.679 113.165C105.609 113.444 105.627 113.689 105.714 113.759C105.801 113.811 107.075 116.255 108.542 119.17L111.212 124.493L110.776 124.808C110.532 124.982 109.694 125.471 108.926 125.872C106.901 126.955 106.796 127.042 107.442 127.024C107.791 127.007 107.948 126.937 107.878 126.78C107.826 126.658 107.861 126.588 107.948 126.64C108.035 126.693 108.472 126.571 108.926 126.379C109.38 126.187 109.764 126.047 109.781 126.082C110.27 126.832 110.898 128.316 110.758 128.403C110.671 128.456 110.584 128.613 110.584 128.717C110.584 128.84 110.654 128.822 110.776 128.665C110.916 128.456 110.933 128.508 110.863 128.875C110.811 129.136 110.828 129.398 110.933 129.451C111.02 129.503 111.055 129.451 111.003 129.311C110.95 129.171 111.02 128.997 111.142 128.909C111.265 128.84 111.317 128.84 111.247 128.927C111.177 128.997 111.247 129.171 111.387 129.311C111.614 129.555 111.614 129.625 111.3 129.904C110.846 130.323 110.689 130.323 110.34 129.835C110.095 129.503 110.095 129.52 110.357 130.096C110.619 130.707 110.671 130.742 110.95 130.48C111.125 130.323 111.334 130.254 111.439 130.306C111.526 130.358 111.631 130.306 111.684 130.201C111.718 130.079 111.753 130.184 111.753 130.446C111.753 130.707 111.701 130.882 111.614 130.83C111.142 130.55 111.841 131.65 112.766 132.662C113.464 133.413 116.012 135.909 120.62 140.36C121.964 141.669 124.146 143.781 125.49 145.073C126.817 146.364 128.004 147.516 128.126 147.639C128.248 147.761 128.388 147.813 128.44 147.761C128.58 147.604 131.041 147.01 133.083 146.609C135.876 146.085 140.816 145.98 143.225 146.399C145.389 146.783 147.204 146.818 147.414 146.487C147.484 146.347 147.641 146.312 147.745 146.364C148.199 146.644 147.885 146.12 147.379 145.736C146.506 145.073 144.167 144.252 142.265 143.921C140.205 143.572 134.881 143.659 132.245 144.095C131.198 144.252 130.5 144.305 130.325 144.2C130.081 144.06 130.081 144.025 130.308 144.025C130.482 144.008 130.448 143.956 130.221 143.851L129.872 143.711L130.221 143.589C131.163 143.275 131.704 142.961 131.704 142.734C131.704 142.594 131.792 142.454 131.896 142.42C132.141 142.332 132.123 138.737 131.861 136.904C131.757 136.206 131.722 135.49 131.792 135.315C131.861 135.106 131.792 134.949 131.6 134.879C131.338 134.774 131.338 134.739 131.617 134.425C131.792 134.233 132.019 134.076 132.141 134.076C132.263 134.076 132.56 133.884 132.821 133.64C133.467 133.046 133.188 132.68 132.123 132.68C130.832 132.68 130.605 132.505 130.151 131.109C129.924 130.428 129.627 129.765 129.505 129.625C129.365 129.503 129.261 129.259 129.261 129.119C129.261 128.962 129.191 128.84 129.104 128.84C128.999 128.84 128.685 128.386 128.405 127.827C128.109 127.286 127.515 126.448 127.079 125.977C126.415 125.227 126.136 125.069 125.124 124.808C124.478 124.633 123.745 124.493 123.535 124.493C123.169 124.476 122.209 124.895 121.93 125.174C121.877 125.227 121.615 125.384 121.336 125.523C121.039 125.68 120.708 126.064 120.551 126.431C120.394 126.78 120.132 127.112 119.957 127.164C119.783 127.199 119.695 127.339 119.765 127.496C119.818 127.635 119.695 127.915 119.486 128.107C119.276 128.299 119.067 128.648 118.997 128.909C118.875 129.363 118.84 129.328 118.334 128.368C118.037 127.81 117.217 126.291 116.501 124.965C115.314 122.783 115.175 122.591 114.773 122.661C114.372 122.73 114.215 122.556 113.115 120.706C112.452 119.589 111.474 118 110.95 117.162C110.444 116.342 109.781 115.207 109.484 114.649C109.188 114.09 108.769 113.479 108.542 113.305C108.053 112.921 108.035 112.816 108.524 112.31L108.891 111.908H108.385C108.105 111.908 107.756 111.996 107.617 112.083ZM111.334 125.611C111.282 125.768 111.195 125.855 111.16 125.803C111.108 125.75 111.125 125.645 111.195 125.541C111.352 125.261 111.457 125.314 111.334 125.611ZM110.793 126.169C110.898 126.571 110.776 126.92 110.549 126.92C110.444 126.92 110.427 126.728 110.479 126.466C110.566 126.169 110.532 126.064 110.409 126.134C110.322 126.187 110.235 126.152 110.235 126.064C110.235 125.75 110.706 125.855 110.793 126.169ZM110.881 127.478C110.828 127.618 110.776 127.565 110.776 127.373C110.758 127.181 110.811 127.077 110.863 127.147C110.916 127.199 110.933 127.356 110.881 127.478ZM111.596 127.531C111.858 128.089 111.858 128.543 111.631 128.403C111.526 128.333 111.492 128.211 111.561 128.124C111.614 128.037 111.526 127.757 111.387 127.531C111.23 127.286 111.16 127.094 111.247 127.094C111.334 127.094 111.492 127.286 111.596 127.531Z" fill="white"/>
<path d="M98.6795 116.342C98.1209 116.639 97.3529 117.32 97.5973 117.32C97.6845 117.32 97.6496 117.389 97.5274 117.477C97.3529 117.581 98.0336 118.349 100.058 120.339C102.816 123.062 103.741 123.883 103.864 123.743C103.933 123.691 101.158 118.506 100.425 117.354C100.163 116.918 100.128 116.726 100.268 116.552C100.425 116.36 100.373 116.29 100.076 116.202C99.4649 116.045 99.2031 116.08 98.6795 116.342Z" fill="white"/>
<path d="M296.479 116.429C296.129 117.093 296.252 117.145 297.945 117.145C299.481 117.145 299.603 117.128 299.847 116.726C300.214 116.168 300.022 116.098 298.137 116.098C296.863 116.098 296.636 116.15 296.479 116.429Z" fill="white"/>
<path d="M96.009 118.786C95.1363 119.17 94.3508 119.92 94.3508 120.392C94.3508 120.618 94.4381 120.81 94.5428 120.81C94.7174 120.81 98.2607 124.109 102.24 127.932L103.392 129.067L103.934 128.683C104.23 128.473 104.475 128.351 104.475 128.438C104.475 128.508 104.684 128.351 104.928 128.089C105.19 127.81 105.487 127.635 105.627 127.688C105.819 127.758 105.836 127.705 105.714 127.461C105.609 127.286 105.592 127.077 105.662 126.99C105.731 126.92 105.574 126.99 105.313 127.147C104.876 127.426 104.824 127.426 104.614 127.129C104.492 126.972 104.003 126.483 103.515 126.064C103.043 125.645 101.822 124.493 100.809 123.533C99.7968 122.556 98.4353 121.282 97.7894 120.688C97.1436 120.077 96.62 119.501 96.62 119.397C96.62 119.309 96.5501 119.274 96.4454 119.327C96.2185 119.466 96.2185 119.309 96.4454 118.873C96.5501 118.698 96.6025 118.541 96.5851 118.541C96.5501 118.559 96.3058 118.664 96.009 118.786Z" fill="white"/>
<path d="M121.703 120.06C122.017 120.095 122.575 120.095 122.924 120.06C123.291 120.025 123.047 119.99 122.366 119.99C121.703 119.99 121.406 120.025 121.703 120.06Z" fill="white"/>
<path d="M295.204 122.923C295.135 123.202 295.152 123.237 295.361 123.062C295.641 122.835 295.693 122.556 295.449 122.556C295.361 122.556 295.257 122.713 295.204 122.923Z" fill="white"/>
<path d="M290.282 124.476C290.212 124.581 290.23 124.755 290.334 124.86C290.561 125.087 290.736 124.79 290.561 124.493C290.439 124.319 290.387 124.319 290.282 124.476Z" fill="white"/>
<path d="M289.235 125.401C289.043 125.488 288.711 125.803 288.484 126.064L288.065 126.571H290.352C292.603 126.571 292.621 126.571 292.987 126.082L293.371 125.611L291.958 125.558C291.015 125.523 290.579 125.453 290.649 125.331C290.718 125.192 290.649 125.209 290.404 125.331C290.16 125.453 290.003 125.471 289.933 125.349C289.811 125.139 289.706 125.157 289.235 125.401Z" fill="white"/>
<path d="M88.6255 126.117C88.0669 126.728 87.6654 127.443 87.7876 127.583C87.8574 127.653 88.0145 127.565 88.1367 127.391C88.4858 126.937 88.9397 127.007 88.9397 127.548C88.9397 127.88 89.5506 128.613 91.5753 130.637C93.0241 132.104 94.787 133.902 95.4852 134.635C96.3754 135.577 96.8467 135.961 97.0387 135.891C97.1958 135.839 97.318 135.682 97.318 135.56C97.318 135.455 97.4751 135.211 97.6671 135.036C97.8591 134.862 98.0162 134.67 98.0162 134.6C98.0162 134.286 91.6801 128.211 91.1215 127.984C90.755 127.845 90.5106 127.618 90.4757 127.373C90.4408 127.147 90.2837 126.989 90.0393 126.954C89.7251 126.902 89.6378 126.78 89.6378 126.396C89.6378 125.75 89.0967 125.593 88.6255 126.117Z" fill="white"/>
<path d="M107.966 127.356C107.966 127.443 108.053 127.653 108.14 127.792C108.227 127.932 108.315 127.967 108.315 127.88C108.315 127.775 108.227 127.583 108.14 127.443C108.053 127.304 107.966 127.251 107.966 127.356Z" fill="white"/>
<path d="M286.529 128.613C286.093 129.049 285.761 129.468 285.779 129.556C285.813 129.643 285.569 129.817 285.255 129.94C284.679 130.184 283.457 131.231 283.597 131.371C283.632 131.406 284.801 131.353 286.198 131.249L288.711 131.039L289.409 130.201C289.793 129.73 290.09 129.294 290.072 129.206C290.055 129.119 290.212 128.91 290.422 128.735L290.806 128.403L290.456 128.84C290.16 129.224 290.177 129.206 290.666 128.77C291.556 127.967 291.312 127.793 289.165 127.793L287.315 127.81L286.529 128.613Z" fill="white"/>
<path d="M106.569 128.578C106.901 128.91 107.198 129.189 107.25 129.189C107.302 129.189 107.075 128.91 106.744 128.578C106.412 128.246 106.115 127.967 106.063 127.967C106.011 127.967 106.237 128.246 106.569 128.578Z" fill="white"/>
<path d="M108.489 128.473C108.489 128.578 108.559 128.7 108.664 128.753C108.769 128.805 108.786 128.735 108.734 128.596C108.611 128.281 108.489 128.229 108.489 128.473Z" fill="white"/>
<path d="M109.292 131.144C109.345 131.266 109.676 131.597 110.025 131.877L110.671 132.4L109.973 131.667C109.24 130.882 109.135 130.812 109.292 131.144Z" fill="white"/>
<path d="M284.208 132.593C282.48 132.802 282.27 132.872 281.677 133.413C281.31 133.727 280.769 134.181 280.455 134.408C280.158 134.635 279.949 134.879 279.983 134.949C280.071 135.089 279.565 135.368 279.32 135.316C279.233 135.298 279.215 135.368 279.268 135.455C279.338 135.542 279.215 135.682 279.006 135.734C278.814 135.804 278.692 135.892 278.744 135.944C278.797 135.996 278.43 136.363 277.924 136.764C276.929 137.55 276.004 138.44 276.196 138.44C276.266 138.44 276.074 138.58 275.777 138.737C274.782 139.313 274.398 139.644 274.572 139.819C274.677 139.924 275.899 140.046 277.278 140.116L279.826 140.238L282.514 137.532C285.237 134.809 287.088 132.872 287.315 132.523C287.454 132.278 286.669 132.296 284.208 132.593Z" fill="white"/>
<path d="M111.195 133.029C111.369 133.221 111.544 133.378 111.596 133.378C111.648 133.378 111.544 133.221 111.369 133.029C111.195 132.837 111.02 132.68 110.968 132.68C110.915 132.68 111.02 132.837 111.195 133.029Z" fill="white"/>
<path d="M213.219 132.785C208.942 133.256 207.616 133.605 206.568 134.548C205.8 135.246 205.748 135.508 206.237 136.311C206.656 136.991 207.598 137.428 208.488 137.375C209.745 137.306 210.251 137.585 210.251 138.318C210.251 138.685 209.291 139.487 208.855 139.487C208.75 139.487 208.715 139.557 208.768 139.662C208.82 139.749 208.803 139.837 208.698 139.837C208.436 139.837 207.965 140.884 208.209 140.901C208.628 140.919 207.494 141.268 205.905 141.617C204.072 142.001 201.821 142.944 196.288 145.649C192.395 147.552 191.068 148.407 190.615 149.262C190.3 149.856 190.266 150.886 190.545 151.392C191.086 152.387 193.512 152.526 195.973 151.688C197.928 151.025 199.604 150.92 200.337 151.409C200.599 151.584 200.983 152.107 201.175 152.544C201.786 153.888 201.995 154.219 202.484 154.586C202.903 154.9 203.182 154.918 206.464 154.883C212.154 154.795 215.907 153.975 223.168 151.27C227.34 149.716 229.766 148.372 231.511 146.679C233.17 145.073 233.571 143.258 232.681 141.46C231.948 140.011 230.778 139.069 228.09 137.794C226.781 137.166 224.879 136.206 223.866 135.63C221.457 134.286 219.415 133.413 217.966 133.116C216.692 132.855 214.179 132.68 213.219 132.785ZM213.934 133.553C214.441 133.692 215.313 134.408 215.313 134.67C215.313 134.74 215.139 134.775 212.782 135.141C211.421 135.351 209.867 135.351 209.728 135.141C209.675 135.054 209.344 134.949 208.977 134.879C208.436 134.775 208.349 134.705 208.506 134.53C208.715 134.268 208.75 134.251 210.95 133.745C212.678 133.343 213.097 133.326 213.934 133.553ZM227.794 138.964C227.846 139.051 227.776 139.138 227.637 139.138C227.479 139.138 227.357 139.226 227.357 139.348C227.357 139.505 227.305 139.505 227.148 139.348C226.973 139.173 226.973 139.086 227.183 138.964C227.514 138.754 227.654 138.754 227.794 138.964ZM208.855 140.36C208.855 140.447 208.82 140.535 208.785 140.535C208.733 140.535 208.646 140.447 208.593 140.36C208.541 140.255 208.576 140.186 208.663 140.186C208.768 140.186 208.855 140.255 208.855 140.36Z" fill="white"/>
<path d="M112.068 133.902C112.242 134.094 112.469 134.251 112.556 134.251C112.661 134.251 112.556 134.094 112.329 133.902C112.102 133.71 111.893 133.553 111.841 133.553C111.788 133.553 111.893 133.71 112.068 133.902Z" fill="white"/>
<path d="M113.028 134.757C113.028 134.862 113.097 134.984 113.202 135.036C113.307 135.089 113.324 135.019 113.272 134.879C113.15 134.565 113.028 134.513 113.028 134.757Z" fill="white"/>
<path d="M89.0968 136.031C88.5557 137.183 87.299 139.278 87.0372 139.487C86.8975 139.592 85.9724 140.849 85.9724 140.919C85.9724 140.954 86.1644 140.988 86.4088 140.988C86.723 141.006 86.8452 140.936 86.8452 140.709C86.8452 140.5 87.0023 140.36 87.2466 140.325C87.4561 140.29 87.6132 140.168 87.5957 140.063C87.5783 139.959 87.8052 139.767 88.1194 139.644C88.8699 139.365 89.4634 138.807 89.4634 138.405C89.4634 138.231 89.5332 138.091 89.6205 138.091C89.8823 138.091 90.0219 136.991 89.7776 136.834C89.6205 136.747 89.6554 136.695 89.8998 136.695C90.0918 136.695 90.7376 136.52 91.3485 136.311C92.1165 136.031 92.4307 135.822 92.4307 135.612C92.4307 135.368 92.2911 135.298 91.8722 135.298C91.4882 135.298 91.366 135.246 91.5231 135.141C91.8198 134.966 91.2263 134.774 90.3187 134.774C89.7252 134.774 89.6903 134.827 89.0968 136.031Z" fill="white"/>
<path d="M113.865 135.665C114.022 135.857 114.319 136.101 114.511 136.206C114.755 136.328 114.703 136.223 114.354 135.839C113.778 135.246 113.376 135.089 113.865 135.665Z" fill="white"/>
<path d="M115.646 137.305C116.082 137.777 116.588 138.283 116.763 138.423C116.937 138.562 117.252 138.859 117.461 139.086C117.653 139.313 118.09 139.714 118.439 139.959C119.032 140.395 117.775 139.121 115.82 137.323L114.86 136.433L115.646 137.305Z" fill="white"/>
<path d="M119.486 140.954C119.486 141.023 119.783 141.372 120.149 141.722C121.86 143.362 130.343 151.636 134.148 155.371C136.487 157.658 138.459 159.508 138.512 159.456C138.599 159.351 134.2 154.987 126.049 147.115C123.937 145.073 122.139 143.327 122.017 143.24C121.912 143.135 121.284 142.559 120.655 141.931C120.009 141.32 119.486 140.866 119.486 140.954Z" fill="white"/>
<path d="M272.199 141.617C271.937 141.844 271.588 142.14 271.413 142.28C270.401 143.083 268.987 144.305 268.935 144.409C268.9 144.497 268.76 144.549 268.62 144.549C268.184 144.549 268.358 144.933 269.249 145.876C269.72 146.382 270.244 147.063 270.418 147.412C270.575 147.761 270.785 148.04 270.872 148.04C271.029 148.04 272.391 146.905 274.223 145.247C274.712 144.811 275.812 143.833 276.667 143.065L278.221 141.669L276.911 141.564C272.303 141.18 272.687 141.18 272.199 141.617Z" fill="white"/>
<path d="M103.078 144.148C103.078 144.235 102.677 144.287 102.188 144.305C100.896 144.34 100.547 144.724 100.774 145.928C100.949 146.905 100.896 146.993 99.9014 147.237C99.4476 147.342 99.2032 147.691 99.5872 147.691C99.692 147.691 99.9363 147.883 100.128 148.11C100.355 148.372 100.861 148.616 101.403 148.756C101.891 148.86 102.467 149.122 102.694 149.314C102.904 149.506 103.078 149.628 103.078 149.559C103.078 149.279 105.173 150.396 107.39 151.88C109.449 153.259 109.833 153.573 109.659 153.783C109.537 153.922 109.903 153.748 110.462 153.399C111.003 153.05 111.457 152.805 111.457 152.858C111.457 152.962 111.544 152.858 109.432 155.039C108.035 156.506 106.395 158.583 106.395 158.914C106.395 158.984 106.971 159.037 107.669 159.037H108.926L110.06 157.885C110.689 157.239 111.841 156.209 112.626 155.581L114.057 154.446L109.397 149.873C105.225 145.771 103.358 144.025 103.148 144.025C103.113 144.025 103.078 144.078 103.078 144.148Z" fill="white"/>
<path d="M148.182 148.11C148.356 148.25 148.775 148.616 149.089 148.913C149.421 149.21 149.683 149.384 149.683 149.297C149.683 149.14 149.334 148.04 149.281 148.04C149.264 148.023 148.932 147.988 148.548 147.935C147.903 147.866 147.885 147.866 148.182 148.11Z" fill="white"/>
<path d="M263.192 148.808C262.791 149.122 262.511 149.454 262.581 149.524C262.651 149.611 262.616 149.611 262.511 149.559C262.284 149.437 259.876 151.322 259.945 151.549C259.98 151.636 259.893 151.653 259.753 151.601C259.631 151.549 259.474 151.636 259.422 151.776C259.352 151.933 259.177 152.055 259.02 152.055C258.863 152.055 258.584 152.247 258.392 152.491C258.2 152.736 257.973 152.875 257.868 152.823C257.746 152.753 257.729 152.788 257.799 152.893C257.903 153.085 257.694 153.172 257.345 153.12C257.257 153.12 257.205 153.189 257.205 153.294C257.205 153.381 257.345 153.451 257.519 153.434C257.991 153.381 258.427 153.643 258.427 153.992C258.427 154.167 258.34 154.324 258.252 154.324C258.043 154.324 258.2 155.563 258.427 155.72C258.654 155.877 258.741 156.576 258.532 156.663C258.392 156.715 258.409 156.75 258.549 156.75C258.671 156.768 258.724 156.872 258.671 157.012C258.532 157.379 259.16 157.256 259.736 156.803C260.033 156.593 261.464 155.528 262.93 154.446L265.601 152.491L265.496 151.706C265.304 150.327 264.414 148.197 264.047 148.232C263.978 148.232 263.594 148.494 263.192 148.808ZM258.375 153.015C258.375 153.154 258.252 153.277 258.113 153.277C257.903 153.277 257.903 153.224 258.078 153.015C258.2 152.875 258.305 152.753 258.34 152.753C258.357 152.753 258.375 152.875 258.375 153.015ZM259.125 156.261C259.125 156.349 259.195 156.401 259.282 156.349C259.369 156.279 259.422 156.366 259.404 156.506C259.352 156.82 258.951 157.256 258.933 157.012C258.933 156.925 258.898 156.68 258.881 156.453C258.846 156.244 258.898 156.069 258.985 156.069C259.055 156.069 259.125 156.157 259.125 156.261Z" fill="white"/>
<path d="M256.856 153.8C256.995 153.887 257.205 153.975 257.292 153.975C257.397 153.975 257.345 153.887 257.205 153.8C257.065 153.713 256.873 153.626 256.769 153.626C256.681 153.626 256.716 153.713 256.856 153.8Z" fill="white"/>
<path d="M255.931 154.341C256.053 154.464 256.193 154.516 256.245 154.464C256.297 154.411 256.21 154.307 256.036 154.254C255.791 154.149 255.774 154.167 255.931 154.341Z" fill="white"/>
<path d="M256.943 154.324C256.891 154.411 256.996 154.499 257.205 154.499C257.415 154.499 257.519 154.411 257.467 154.324C257.415 154.219 257.292 154.149 257.205 154.149C257.118 154.149 256.996 154.219 256.943 154.324Z" fill="white"/>
<path d="M116.711 157.204C116.798 157.431 122.82 169.23 122.907 169.3C122.977 169.405 127.445 168.27 127.707 168.096C127.899 167.956 127.882 167.886 127.602 167.66C127.41 167.52 125.647 165.809 123.675 163.872C118.91 159.159 116.641 156.995 116.711 157.204Z" fill="white"/>
<path d="M121.057 158.426C121.58 158.949 122.052 159.386 122.087 159.386C122.139 159.386 121.755 158.949 121.231 158.426C120.708 157.902 120.236 157.466 120.202 157.466C120.149 157.466 120.533 157.902 121.057 158.426Z" fill="white"/>
<path d="M135.876 157.885C136.016 158.042 136.295 158.269 136.487 158.374C136.819 158.548 136.836 158.548 136.609 158.269C136.469 158.112 136.19 157.885 135.998 157.78C135.667 157.606 135.649 157.606 135.876 157.885Z" fill="white"/>
<path d="M257.537 158.112C257.31 158.391 257.327 158.408 257.607 158.182C257.764 158.059 257.903 157.92 257.903 157.885C257.903 157.745 257.764 157.832 257.537 158.112Z" fill="white"/>
<path d="M105.522 160.503C105.382 160.904 105.505 161.69 105.697 161.568C105.784 161.515 105.906 161.55 105.958 161.655C106.028 161.76 106.238 161.794 106.43 161.725C106.744 161.637 106.779 161.672 106.674 161.934C106.395 162.632 106.377 162.772 106.657 162.301C107.058 161.602 107.11 161.184 106.814 161.061C106.657 161.009 106.604 161.044 106.657 161.131C106.709 161.236 106.692 161.306 106.604 161.306C106.517 161.306 106.447 161.114 106.447 160.869V160.433L106.971 160.817C107.425 161.149 107.494 161.149 107.39 160.887C107.32 160.73 107.337 160.625 107.442 160.695C107.529 160.747 107.669 160.66 107.756 160.485C107.913 160.206 107.826 160.171 106.796 160.171C105.836 160.171 105.627 160.224 105.522 160.503Z" fill="white"/>
<path d="M125.106 162.441C126.328 163.68 127.358 164.657 127.376 164.622C127.41 164.57 126.416 163.558 125.159 162.353L122.89 160.171L125.106 162.441Z" fill="white"/>
<path d="M138.686 160.625C138.686 160.713 138.774 160.747 138.861 160.695C138.966 160.643 139.035 160.555 139.035 160.503C139.035 160.468 138.966 160.433 138.861 160.433C138.774 160.433 138.686 160.521 138.686 160.625Z" fill="white"/>
<path d="M138.616 161.061C138.267 161.411 138.267 161.48 138.686 162.004C138.878 162.248 139.035 162.545 139.035 162.667C139.035 162.981 139.646 162.772 140.467 162.196L141.113 161.725L140.571 161.253C140.275 160.992 139.995 160.817 139.926 160.887C139.873 160.957 139.926 161.044 140.048 161.079C140.153 161.131 140.257 161.288 140.257 161.445C140.257 161.655 140.135 161.603 139.769 161.253C139.21 160.712 139 160.677 138.616 161.061Z" fill="white"/>
<path d="M126.817 163.104C128.911 165.251 129.086 165.408 129.086 165.251C129.086 165.163 126.206 162.301 125.316 161.48C124.932 161.149 125.613 161.882 126.817 163.104Z" fill="white"/>
<path d="M127.812 165.146C127.986 165.338 128.178 165.495 128.248 165.495C128.318 165.495 128.248 165.338 128.091 165.146C127.917 164.954 127.725 164.797 127.655 164.797C127.585 164.797 127.655 164.954 127.812 165.146Z" fill="white"/>
<path d="M128.65 166.019C128.824 166.211 128.999 166.368 129.051 166.368C129.103 166.368 128.999 166.211 128.824 166.019C128.65 165.827 128.475 165.67 128.423 165.67C128.37 165.67 128.475 165.827 128.65 166.019Z" fill="white"/>
<path d="M170.541 169.073C167.539 169.37 162.826 170.208 164.188 170.208C164.519 170.208 168.569 172.18 169.215 172.669C169.703 173.018 169.773 173.036 171.658 172.826C172.793 172.686 174.731 172.634 176.336 172.686C178.221 172.739 178.937 172.721 178.64 172.599L178.221 172.425L178.658 172.302C179.042 172.198 179.007 172.163 178.309 172.041C177.628 171.918 177.576 171.884 177.96 171.779L178.396 171.674L178.012 171.534C177.698 171.43 177.611 171.273 177.611 170.801C177.611 170.452 177.698 170.208 177.837 170.208C178.291 170.208 177.506 169.859 177 169.841C176.493 169.824 176.476 169.824 176.912 169.684C177.314 169.562 177.314 169.545 176.738 169.492C176.162 169.457 176.162 169.457 176.912 169.353L177.698 169.248L176.336 169.021C174.713 168.777 173.578 168.777 170.541 169.073Z" fill="white"/>
<path d="M161.727 170.505C161.587 170.54 161.343 170.627 161.203 170.679C161.063 170.732 160.767 170.801 160.557 170.836C159.772 170.941 153.034 172.878 152.476 173.175C152.318 173.245 151.952 173.367 151.638 173.437C151.324 173.489 151.079 173.629 151.079 173.699C151.079 173.786 150.957 173.804 150.782 173.751C150.59 173.664 150.538 173.699 150.643 173.856C150.748 174.03 150.678 174.048 150.381 173.961C150.119 173.873 150.032 173.891 150.102 174.03C150.224 174.205 150.154 174.24 149.508 174.292C148.932 174.345 147.414 175.025 147.414 175.217C147.414 175.357 147.169 175.444 146.785 175.444C146.454 175.444 146.209 175.514 146.262 175.584C146.297 175.654 146.192 175.741 146 175.759C145.825 175.776 145.546 175.793 145.406 175.811C145.267 175.828 145.11 176.003 145.04 176.177C144.97 176.404 144.83 176.474 144.638 176.404C144.254 176.282 143.556 176.527 143.172 176.928C143.015 177.085 142.666 177.242 142.404 177.277C141.758 177.382 139.873 178.324 140.03 178.464C140.083 178.534 139.978 178.586 139.786 178.586C139.419 178.586 137.831 179.232 136.749 179.808C136.4 180 135.981 180.157 135.824 180.157C135.632 180.157 135.579 180.244 135.649 180.367C135.736 180.489 135.701 180.506 135.562 180.436C135.44 180.349 135.195 180.436 135.021 180.594C134.846 180.751 134.602 180.838 134.48 180.751C134.357 180.681 134.305 180.698 134.392 180.82C134.462 180.943 134.218 181.1 133.764 181.239C133.345 181.344 132.978 181.501 132.926 181.571C132.734 181.833 130.849 182.775 130.5 182.775C130.29 182.775 130.133 182.845 130.133 182.915C130.133 182.985 129.871 183.142 129.557 183.264C129.243 183.369 128.824 183.596 128.65 183.735C128.318 184.015 128.318 184.015 128.719 183.893C128.946 183.84 129.348 183.77 129.592 183.753C130.029 183.718 130.046 183.753 129.889 184.119C129.732 184.451 129.557 184.521 128.946 184.521C128.527 184.521 128.039 184.451 127.864 184.346C127.602 184.207 127.567 184.242 127.637 184.573C127.724 184.94 127.724 184.94 127.48 184.626C127.288 184.381 127.148 184.346 126.939 184.451C126.695 184.591 126.799 184.783 127.62 185.708C128.737 186.947 129.121 187.209 129.627 187.052C129.889 186.965 129.941 186.842 129.854 186.563C129.749 186.197 129.767 186.197 129.994 186.493C130.221 186.807 130.255 186.807 130.884 186.511C131.285 186.319 131.599 186.266 131.687 186.371C131.774 186.458 132.647 188.064 133.624 189.932C139.751 201.644 148.304 217.72 156.228 232.347C160.627 240.481 160.871 240.9 160.976 240.9C161.028 240.9 160.679 240.167 160.208 239.277C159.213 237.427 159.056 237.06 159.266 237.06C159.353 237.06 159.562 237.357 159.719 237.706C160.034 238.369 160.575 239.207 160.976 239.626C161.081 239.748 161.412 240.359 161.709 240.987C162.006 241.616 162.338 242.087 162.425 242.035C162.53 241.965 162.547 242.052 162.477 242.227C162.407 242.419 162.425 242.489 162.564 242.401C162.669 242.349 162.809 242.384 162.879 242.489C162.948 242.628 162.931 242.646 162.809 242.576C162.687 242.506 162.599 242.524 162.599 242.628C162.599 242.716 162.704 242.873 162.844 242.942C163.123 243.117 163.542 243.868 163.35 243.868C163.28 243.868 163.35 243.955 163.524 244.06C163.682 244.147 163.821 244.356 163.821 244.496C163.821 244.636 163.909 244.705 163.996 244.653C164.101 244.583 164.17 244.74 164.17 244.985C164.17 245.229 164.24 245.438 164.345 245.438C164.432 245.438 164.729 245.857 164.973 246.346C165.218 246.852 165.811 247.9 166.265 248.668C167.05 249.994 168.569 252.77 170.506 256.435C170.978 257.343 171.781 258.791 172.287 259.664C172.793 260.52 173.526 261.881 173.91 262.666C174.294 263.452 174.87 264.464 175.167 264.901C175.481 265.337 175.673 265.826 175.621 265.965C175.568 266.105 175.586 266.192 175.656 266.14C175.795 266.053 177.907 270.032 177.838 270.259C177.803 270.329 177.872 270.399 177.96 270.399C178.064 270.399 178.134 270.521 178.134 270.678C178.134 270.818 178.222 270.888 178.326 270.818C178.466 270.748 178.483 270.835 178.396 271.097C178.291 271.429 178.326 271.481 178.571 271.376C178.798 271.307 178.85 271.342 178.78 271.516C178.675 271.778 179.391 273.244 179.845 273.698C179.967 273.82 180.037 274.047 179.984 274.187C179.932 274.326 179.95 274.396 180.019 274.344C180.229 274.222 181.136 276.142 180.997 276.369C180.927 276.491 180.962 276.508 181.084 276.438C181.206 276.351 181.381 276.543 181.538 276.979C181.695 277.346 181.887 277.782 181.974 277.939C182.079 278.114 182.254 278.428 182.376 278.638C182.481 278.865 182.725 279.196 182.882 279.388C183.057 279.58 183.301 280.052 183.441 280.436C183.702 281.204 184.593 282.809 184.593 282.548C184.593 282.198 185.099 283.071 185.116 283.438C185.116 283.647 185.256 283.909 185.43 283.996C185.587 284.101 185.675 284.188 185.587 284.188C185.518 284.188 185.64 284.485 185.867 284.834C186.111 285.201 186.495 285.864 186.757 286.335C187.019 286.789 187.403 287.33 187.612 287.522C187.822 287.732 187.909 287.854 187.787 287.784C187.473 287.61 190.929 293.195 193.896 297.629C196.811 301.992 199.202 304.68 200.11 304.576C201.122 304.453 201.262 302.813 200.494 300.055C199.482 296.459 195.415 286.004 192.884 280.453C192.744 280.156 192.255 278.987 191.784 277.87C191.313 276.735 190.876 275.862 190.789 275.95C190.719 276.019 190.702 275.932 190.754 275.758C190.824 275.601 190.789 275.461 190.702 275.461C190.632 275.461 190.51 275.234 190.44 274.955C190.388 274.675 190.178 274.152 189.986 273.785C189.812 273.419 189.654 273.017 189.654 272.878C189.654 272.755 189.567 272.703 189.462 272.773C189.34 272.843 189.305 272.773 189.375 272.528C189.445 272.319 189.41 272.127 189.288 272.04C189.148 271.97 189.131 271.987 189.201 272.11C189.393 272.424 189.201 272.354 188.939 272.022C188.764 271.83 188.764 271.778 188.921 271.865C189.201 272.04 189.183 271.865 188.869 271.376C188.712 271.15 188.555 270.8 188.52 270.574C188.38 269.806 188.223 269.526 188.049 269.631C187.926 269.718 187.892 269.648 187.961 269.474C188.014 269.299 187.996 269.177 187.892 269.177C187.787 269.177 187.752 269.107 187.804 269.02C187.961 268.776 187.717 268.287 187.508 268.427C187.42 268.479 187.385 268.444 187.438 268.339C187.595 268.095 187.385 267.589 187.193 267.711C187.106 267.763 187.089 267.659 187.158 267.501C187.228 267.309 187.193 267.24 187.089 267.309C186.984 267.379 186.914 267.292 186.932 267.117C186.932 266.96 186.862 266.838 186.757 266.856C186.652 266.873 186.565 266.786 186.565 266.646C186.565 266.507 186.635 266.437 186.722 266.489C186.792 266.541 186.809 266.454 186.757 266.315C186.705 266.157 186.565 266.088 186.46 266.157C186.356 266.227 186.321 266.157 186.39 265.965C186.478 265.773 186.443 265.704 186.303 265.791C186.164 265.878 186.146 265.826 186.216 265.616C186.286 265.424 186.268 265.355 186.146 265.442C185.849 265.616 185.64 265.145 185.849 264.761C185.989 264.499 185.971 264.447 185.797 264.552C185.64 264.656 185.605 264.604 185.692 264.394C185.762 264.22 185.745 264.133 185.64 264.202C185.535 264.255 185.465 264.202 185.465 264.063C185.465 263.923 185.343 263.749 185.186 263.696C184.959 263.609 184.942 263.539 185.116 263.33C185.273 263.138 185.273 263.016 185.116 262.771C184.942 262.492 184.924 262.492 185.011 262.754C185.064 262.928 185.029 263.103 184.959 263.155C184.767 263.26 184.558 262.474 184.697 262.125C184.767 261.951 184.697 261.811 184.523 261.741C184.366 261.689 184.278 261.567 184.331 261.497C184.383 261.41 184.209 261.148 183.947 260.904C183.563 260.537 183.51 260.432 183.72 260.188C183.912 259.961 183.894 259.926 183.702 260.013C183.528 260.083 183.371 259.909 183.214 259.49C183.091 259.158 182.917 258.879 182.812 258.879C182.725 258.879 182.69 258.757 182.742 258.599C182.795 258.46 182.777 258.373 182.69 258.425C182.603 258.477 182.358 258.076 182.149 257.517C181.765 256.575 178.169 249.052 177.436 247.69C177.174 247.201 177.157 247.009 177.314 246.835C177.471 246.66 177.471 246.643 177.314 246.73C177.174 246.8 177 246.608 176.808 246.189C176.668 245.822 176.441 245.334 176.354 245.089C176.249 244.845 176.162 244.601 176.179 244.513C176.197 244.444 176.144 244.391 176.04 244.391C175.952 244.391 175.935 244.269 175.987 244.094C176.057 243.902 176.04 243.85 175.9 243.937C175.76 244.025 175.725 243.955 175.813 243.763C175.883 243.553 175.865 243.501 175.725 243.588C175.586 243.676 175.551 243.606 175.638 243.414C175.725 243.187 175.691 243.152 175.516 243.257C175.359 243.344 175.324 243.326 175.411 243.204C175.481 243.082 175.464 242.995 175.376 242.995C175.289 242.995 175.219 242.89 175.202 242.768C175.184 242.663 175.132 242.314 175.062 242.035C174.957 241.529 174.957 241.529 175.254 241.86C175.411 242.052 175.499 242.122 175.464 242.035C175.149 241.371 173.474 237.811 172.549 235.891C171.92 234.582 171.379 233.622 171.274 233.691C171.17 233.744 171.152 233.709 171.222 233.587C171.292 233.482 171.082 232.819 170.751 232.12C165.846 221.909 163.088 216.271 155.635 201.208C152.458 194.784 149.875 189.513 149.892 189.478C149.927 189.461 151.917 191.311 154.308 193.615C156.717 195.919 158.916 197.961 159.196 198.171C159.492 198.363 159.283 198.118 158.759 197.595C157.572 196.443 156.63 195.325 156.735 195.221C156.839 195.099 157.537 195.57 157.537 195.779C157.537 195.867 157.852 196.111 158.236 196.285C158.62 196.477 158.934 196.739 158.951 196.896C158.951 197.054 159.004 197.088 159.039 196.966C159.108 196.827 159.213 196.844 159.44 197.054C159.597 197.211 160.278 197.822 160.941 198.398C162.46 199.707 164.223 201.312 164.38 201.539C164.45 201.627 164.519 201.644 164.519 201.557C164.519 201.47 164.345 201.243 164.135 201.033C163.559 200.492 162.303 199.043 162.146 198.799C162.076 198.677 162.407 198.921 162.861 199.358C164.118 200.527 164.17 200.562 164.537 200.771C164.729 200.859 164.816 201.033 164.764 201.138C164.694 201.243 164.711 201.278 164.816 201.225C164.921 201.155 165.829 201.923 166.841 202.936C167.853 203.948 168.744 204.769 168.831 204.769C168.901 204.769 167.434 203.233 165.567 201.365C163.699 199.48 162.303 197.996 162.477 198.066C162.634 198.118 162.774 198.101 162.774 198.014C162.774 197.926 162.634 197.734 162.477 197.595C161.971 197.141 158.847 193.737 158.166 192.899C157.817 192.463 157.276 191.8 156.961 191.416C155.827 190.002 154.57 188.361 154.57 188.239C154.57 188.186 154.361 187.855 154.099 187.506L153.628 186.895L154.221 187.331C154.954 187.872 155.268 188.064 155.268 187.942C155.268 187.855 155.181 187.75 154.256 186.755C153.785 186.249 153.732 186.109 153.924 185.952C154.116 185.778 154.291 185.847 154.727 186.266C155.321 186.842 155.46 186.72 154.919 186.092C154.727 185.865 154.57 185.603 154.588 185.498C154.588 185.394 154.64 185.394 154.692 185.516C154.727 185.638 154.919 185.743 155.094 185.743C155.268 185.743 155.46 185.813 155.513 185.9C155.583 185.987 156.036 186.406 156.543 186.807C157.468 187.575 157.363 187.383 156.071 185.952C155.775 185.655 155.635 185.394 155.74 185.394C155.862 185.394 156.001 185.481 156.054 185.568C156.124 185.673 156.246 185.69 156.351 185.638C156.473 185.551 156.49 185.603 156.403 185.743C156.298 185.917 156.333 185.952 156.56 185.865C156.804 185.76 156.857 185.813 156.769 186.005C156.682 186.231 156.735 186.249 157.031 186.074C157.398 185.882 157.852 186.162 158.812 187.209C158.986 187.383 159.161 187.488 159.231 187.418C159.283 187.366 159.196 187.157 159.021 186.965C158.847 186.773 158.742 186.563 158.794 186.511C158.986 186.336 159.876 186.93 161.186 188.099C161.884 188.728 162.512 189.216 162.564 189.146C162.617 189.094 162.547 188.954 162.407 188.832C162.268 188.728 161.971 188.396 161.727 188.117L161.29 187.593L161.796 187.977C162.076 188.186 162.372 188.361 162.46 188.361C162.547 188.361 162.791 188.518 163.001 188.728C163.21 188.92 163.664 189.234 163.996 189.408C164.327 189.583 164.781 189.897 164.991 190.089C165.2 190.298 165.427 190.456 165.462 190.456C165.671 190.456 167.015 191.677 171.013 195.5C171.763 196.216 172.409 196.757 172.444 196.722C172.496 196.669 172.112 196.181 171.589 195.605C170.995 194.941 170.716 194.488 170.821 194.383C170.925 194.278 171.082 194.365 171.257 194.61C171.397 194.819 171.641 194.994 171.781 194.994C171.92 194.994 171.99 195.064 171.938 195.168C171.885 195.256 172.008 195.343 172.2 195.343C172.479 195.343 172.549 195.43 172.479 195.605C172.426 195.744 172.444 195.849 172.514 195.814C172.584 195.797 172.653 195.849 172.671 195.954C172.688 196.041 172.811 196.163 172.968 196.216C173.107 196.268 174.381 197.403 175.778 198.747C177.75 200.632 178.431 201.173 178.745 201.138C179.112 201.086 179.321 201.33 179.461 201.941C179.531 202.342 179.897 202.657 180.159 202.552C180.508 202.43 180.91 202.796 180.805 203.163C180.752 203.372 181.171 203.861 182.166 204.769C184.907 207.265 186.792 209.045 191.784 213.88C194.524 216.551 196.846 218.732 196.916 218.732C196.986 218.732 196.898 218.558 196.706 218.348C196.462 218.069 196.567 218.104 197.073 218.488C197.457 218.767 197.876 219.151 198.015 219.343C198.155 219.535 198.993 220.408 199.848 221.298C200.721 222.189 201.402 223.009 201.367 223.131C201.332 223.253 201.367 223.306 201.437 223.236C201.506 223.166 201.873 223.463 202.239 223.899C202.606 224.336 202.92 224.632 202.92 224.562C202.92 224.51 203.042 224.545 203.182 224.667C203.339 224.807 203.409 225.034 203.357 225.261C203.269 225.54 203.287 225.575 203.426 225.365C203.566 225.156 203.653 225.156 203.95 225.435C204.142 225.61 204.264 225.837 204.194 225.941C204.125 226.046 204.177 226.064 204.317 225.976C204.491 225.872 204.526 225.906 204.456 226.098C204.334 226.413 207.127 229.293 207.371 229.083C207.441 229.013 207.458 229.031 207.406 229.136C207.354 229.24 207.581 229.589 207.93 229.921C208.279 230.253 208.488 230.392 208.418 230.253C208.331 230.078 208.401 230.113 208.645 230.323C209.064 230.672 209.169 231.056 208.82 230.846C208.663 230.759 208.663 230.794 208.837 231.003C208.96 231.16 209.134 231.265 209.204 231.213C209.274 231.16 209.832 231.649 210.443 232.295C211.054 232.941 211.805 233.726 212.101 234.04C212.398 234.355 212.608 234.651 212.538 234.721C212.485 234.791 212.538 234.774 212.677 234.704C212.869 234.599 212.904 234.634 212.817 234.826C212.695 235.158 213.201 235.646 213.55 235.524C213.707 235.472 213.742 235.524 213.655 235.664C213.568 235.803 213.585 235.856 213.69 235.786C213.795 235.716 214.074 235.96 214.318 236.327C214.563 236.676 214.964 237.182 215.208 237.444C215.453 237.706 215.662 238.02 215.662 238.125C215.662 238.247 215.715 238.282 215.784 238.23C215.942 238.073 216.378 238.457 216.256 238.649C216.203 238.736 216.343 238.806 216.57 238.806C216.884 238.806 216.919 238.841 216.727 238.963C216.518 239.102 216.605 239.277 217.181 239.905C217.565 240.324 217.984 240.848 218.089 241.057C218.211 241.249 218.385 241.424 218.507 241.424C218.647 241.424 218.647 241.371 218.473 241.267C218.35 241.179 218.298 241.022 218.35 240.918C218.542 240.621 218.787 240.865 218.717 241.267C218.612 241.755 219.537 242.716 219.817 242.436C219.974 242.279 220.026 242.279 220.026 242.436C220.026 242.558 219.956 242.646 219.851 242.646C219.502 242.646 219.694 242.995 220.201 243.257C220.829 243.588 221.475 243.361 221.3 242.873C221.23 242.681 221.248 242.628 221.387 242.716C221.754 242.925 221.614 242.733 221.056 242.192C220.724 241.878 220.567 241.808 220.637 242C220.707 242.174 220.689 242.297 220.567 242.297C220.462 242.297 220.375 242.227 220.375 242.157C220.375 242.07 220.253 241.86 220.096 241.668C219.956 241.494 219.886 241.459 219.956 241.598C220.026 241.738 219.869 241.668 219.625 241.441C219.363 241.214 219.206 240.953 219.275 240.848C219.328 240.743 219.241 240.569 219.066 240.429C218.839 240.289 218.822 240.202 218.979 240.202C219.101 240.202 219.153 240.15 219.101 240.097C219.031 240.027 218.874 240.08 218.717 240.202C218.507 240.377 218.455 240.377 218.455 240.185C218.455 240.062 217.722 239.225 216.849 238.334C215.959 237.427 214.685 236.152 214.039 235.472C213.376 234.808 212.765 234.267 212.677 234.267C212.573 234.267 212.538 234.198 212.59 234.128C212.643 234.04 211.909 233.203 210.984 232.243C210.059 231.3 208.558 229.747 207.668 228.787C206.411 227.442 206.01 227.111 205.835 227.268C205.661 227.408 205.469 227.303 204.997 226.797L204.404 226.151L205.032 226.727C205.591 227.233 205.678 227.268 205.888 227.024C206.062 226.814 206.062 226.762 205.87 226.744C205.73 226.744 205.364 226.43 205.067 226.029C204.753 225.645 204.491 225.383 204.491 225.453C204.491 225.522 204.229 225.243 203.898 224.824C203.583 224.405 202.85 223.62 202.292 223.079C201.716 222.555 201.105 221.927 200.913 221.682C200.721 221.455 200.25 221.002 199.866 220.67C199.482 220.356 199.255 220.129 199.359 220.181C199.464 220.251 198.05 218.767 196.218 216.917C194.385 215.05 190.876 211.471 188.415 208.975C184.313 204.803 183.371 203.948 183.65 204.681C183.72 204.821 183.702 204.943 183.633 204.943C183.458 204.943 180.927 202.465 180.718 202.098C180.578 201.819 180.595 201.784 180.944 201.889L181.328 202.011L180.962 201.522C180.77 201.243 180.194 200.614 179.67 200.126C179.164 199.637 178.379 198.851 177.925 198.38C177.471 197.909 176.703 197.123 176.214 196.652C174.486 194.976 170.629 190.857 170.629 190.682C170.629 190.595 170.314 190.211 169.948 189.845C169.564 189.461 169.285 189.112 169.32 189.059C169.354 188.989 169.232 188.832 169.04 188.693C168.831 188.553 168.552 188.361 168.412 188.256C168.185 188.099 168.185 188.029 168.36 187.925C168.499 187.837 168.552 187.855 168.482 187.96C168.429 188.047 168.656 188.256 168.988 188.431C169.424 188.623 169.581 188.797 169.512 188.989C169.442 189.164 169.477 189.216 169.616 189.129C169.738 189.059 169.756 189.077 169.686 189.216C169.616 189.321 169.634 189.391 169.721 189.373C169.808 189.338 170.437 189.792 171.082 190.351C171.746 190.927 172.252 191.346 172.2 191.276C172.147 191.224 168.691 187.75 164.537 183.578C160.365 179.389 156.996 175.933 157.049 175.881C157.345 175.584 164.362 173.891 167.277 173.402L169.075 173.123L166.928 172.18C163.455 170.662 162.372 170.295 161.727 170.505ZM144.446 176.561C144.446 176.596 144.324 176.684 144.167 176.736C144.027 176.788 143.958 176.771 144.01 176.666C144.115 176.492 144.446 176.422 144.446 176.561ZM130.919 185.917C130.971 186.005 131.128 186.039 131.268 185.97C131.407 185.917 131.53 185.917 131.53 185.97C131.53 186.197 131.041 186.197 130.744 185.987C130.57 185.847 130.5 185.743 130.605 185.743C130.727 185.743 130.849 185.813 130.919 185.917ZM130.657 186.441C130.308 186.668 130.081 186.668 130.221 186.441C130.273 186.336 130.465 186.266 130.622 186.266C130.884 186.266 130.884 186.301 130.657 186.441ZM153.872 215.852C153.872 215.94 153.785 215.905 153.697 215.765C153.61 215.626 153.523 215.416 153.523 215.329C153.523 215.224 153.61 215.276 153.697 215.416C153.785 215.556 153.872 215.748 153.872 215.852ZM154.849 218.82C154.989 219.099 155.181 219.466 155.268 219.605C155.6 220.111 157.293 223.201 157.415 223.533C157.485 223.707 157.572 223.812 157.625 223.759C157.66 223.725 157.066 222.433 156.281 220.897C155.338 219.047 154.849 217.895 154.815 217.423C154.78 216.9 154.815 216.812 154.954 217.057C155.041 217.214 155.076 217.406 155.024 217.458C154.919 217.58 155.425 218.558 155.74 218.82C155.844 218.907 156.333 219.745 156.804 220.653C158.759 224.37 160.54 227.634 160.61 227.634C160.662 227.634 160.103 226.465 159.37 225.034C158.655 223.602 158.061 222.311 158.061 222.154C158.061 221.997 157.974 221.874 157.869 221.874C157.764 221.874 157.729 221.752 157.782 221.595C157.834 221.455 157.817 221.386 157.712 221.438C157.555 221.525 157.503 221.421 157.555 221.071C157.555 221.002 157.485 220.897 157.38 220.845C157.276 220.775 157.328 220.548 157.555 220.216C157.887 219.71 157.904 219.71 157.799 220.129C157.695 220.6 158.515 222.101 158.794 221.944C158.864 221.892 158.881 221.997 158.812 222.154C158.724 222.381 158.759 222.415 158.934 222.311C159.108 222.206 159.143 222.241 159.056 222.45C158.986 222.625 159.021 222.73 159.161 222.695C159.266 222.677 159.44 222.922 159.527 223.218C159.632 223.533 159.772 223.794 159.842 223.794C159.911 223.794 159.981 223.917 159.981 224.056C159.981 224.196 160.068 224.318 160.173 224.318C160.26 224.318 160.295 224.388 160.243 224.493C160.191 224.58 160.208 224.667 160.295 224.667C160.383 224.667 160.557 224.929 160.697 225.226C160.819 225.54 160.976 225.837 161.028 225.889C161.081 225.941 161.412 226.517 161.762 227.198C162.111 227.861 162.617 228.856 162.896 229.38C163.175 229.904 163.978 231.422 164.677 232.731C165.375 234.058 165.986 235.14 166.021 235.14C166.09 235.14 162.914 228.682 161.988 226.919C161.744 226.465 161.552 225.924 161.552 225.714C161.552 225.522 161.482 225.4 161.378 225.453C161.29 225.505 161.203 225.488 161.203 225.383C161.203 225.296 161.343 225.226 161.535 225.243C161.762 225.261 161.831 225.365 161.779 225.627C161.709 225.924 161.727 225.924 161.884 225.714C162.041 225.505 162.076 225.557 162.006 225.924C161.954 226.203 161.988 226.413 162.076 226.413C162.163 226.413 162.285 226.57 162.338 226.762C162.407 226.954 162.512 227.076 162.599 227.024C162.669 226.971 162.791 227.058 162.844 227.216C162.896 227.355 162.879 227.425 162.774 227.373C162.669 227.32 162.652 227.39 162.704 227.53C162.756 227.687 162.861 227.774 162.931 227.739C163.001 227.687 163.385 228.298 163.804 229.066C164.38 230.113 164.607 230.41 164.729 230.235C164.851 230.061 164.869 230.078 164.799 230.323C164.694 230.637 165.846 233.22 166.09 233.22C166.143 233.22 166.213 233.046 166.213 232.836C166.247 232.522 166.213 232.487 166.09 232.696C166.003 232.836 165.916 232.906 165.916 232.836C165.916 232.784 165.863 232.592 165.794 232.417C165.724 232.208 165.741 232.155 165.881 232.243C166.021 232.33 166.055 232.277 165.986 232.103C165.794 231.614 166.073 231.806 166.352 232.365C166.509 232.661 166.597 233.011 166.544 233.15C166.492 233.307 166.527 233.36 166.614 233.307C166.719 233.255 166.841 233.325 166.893 233.464C166.946 233.622 167.068 233.691 167.155 233.639C167.242 233.587 167.26 233.691 167.19 233.848C167.12 234.04 167.155 234.11 167.26 234.04C167.487 233.901 167.714 234.39 167.539 234.651C167.487 234.756 167.522 234.791 167.609 234.739C167.836 234.599 168.063 235.088 167.888 235.35C167.836 235.454 167.871 235.489 167.958 235.437C168.063 235.367 168.307 235.646 168.517 236.065C168.726 236.467 169.005 236.99 169.162 237.235C171.065 240.481 187.316 273.035 187.49 273.942C187.525 274.134 187.612 274.344 187.682 274.396C187.769 274.449 187.839 274.571 187.857 274.675C187.874 274.763 188.433 276.072 189.113 277.573C189.794 279.074 190.353 280.383 190.353 280.505C190.353 280.61 190.789 281.588 191.313 282.652C191.836 283.717 192.273 284.712 192.273 284.869C192.273 285.026 192.395 285.305 192.535 285.48C192.674 285.672 192.744 285.986 192.709 286.178C192.657 286.388 192.779 286.981 192.971 287.505C193.355 288.535 193.425 289.687 193.145 289.861C193.041 289.931 192.971 290.071 192.988 290.175C193.058 290.769 192.953 290.891 192.692 290.507C192.552 290.298 192.482 290.036 192.552 289.914C192.622 289.809 192.604 289.774 192.517 289.826C192.412 289.879 192.151 289.564 191.924 289.111C190.894 287.156 189.48 284.642 189.48 284.747C189.48 284.887 191.592 289.128 191.732 289.25C191.959 289.442 193.145 291.973 193.128 292.218C193.128 292.357 193.041 292.27 192.936 291.991C192.849 291.729 192.692 291.519 192.604 291.519C192.535 291.519 192.5 291.397 192.569 291.258C192.674 290.961 192.29 290.961 192.046 291.258C191.959 291.345 191.941 291.275 191.993 291.066C192.063 290.856 191.924 290.402 191.662 289.931C191.435 289.512 191.033 288.814 190.789 288.378C190.545 287.941 190.073 287.086 189.724 286.457C189.393 285.829 189.026 285.236 188.921 285.148C188.729 284.956 190.876 289.18 191.348 289.879C191.487 290.106 191.575 290.298 191.522 290.298C191.417 290.298 190.353 288.762 190.353 288.622C190.353 288.587 190.038 288.046 189.672 287.417C189.288 286.789 188.939 286.126 188.869 285.934C188.817 285.742 188.677 285.585 188.59 285.585C188.502 285.585 188.45 285.532 188.468 285.445C188.502 285.323 187.595 283.682 187.385 283.49C187.333 283.438 187.141 283.089 186.949 282.705C186.757 282.321 186.548 281.972 186.495 281.919C186.425 281.867 186.338 281.657 186.268 281.43C186.198 281.221 186.076 281.046 185.989 281.046C185.919 281.046 185.762 280.837 185.657 280.558C185.43 279.982 185.099 279.441 184.854 279.266C184.767 279.196 184.75 279.126 184.819 279.126C185.029 279.126 183.144 275.758 181.8 273.715C181.695 273.576 181.451 273.104 181.224 272.668C181.014 272.232 180.805 271.848 180.752 271.795C180.7 271.743 180.648 271.621 180.63 271.499C180.595 271.394 180.194 270.643 179.74 269.84C179.269 269.037 178.658 267.99 178.396 267.519C177.558 266 175.568 262.317 175.132 261.497C174.923 261.061 174.678 260.677 174.626 260.624C174.573 260.572 174.155 259.821 173.683 258.966C173.229 258.093 172.2 256.208 171.414 254.777C169.302 250.902 168.464 249.313 166.858 246.189C166.055 244.636 165.218 243.065 164.991 242.698C164.781 242.332 164.17 241.162 163.664 240.115C163.158 239.05 162.687 238.073 162.599 237.933C162.512 237.793 162.25 237.27 162.041 236.798C161.831 236.31 161.168 234.966 160.557 233.796C159.946 232.609 159.458 231.527 159.458 231.387C159.458 231.23 159.388 231.16 159.283 231.213C159.196 231.265 159.108 231.213 159.108 231.091C159.108 230.968 158.602 229.851 157.991 228.595C157.363 227.338 156.647 225.837 156.403 225.261C156.141 224.702 155.216 222.782 154.343 221.002C153.47 219.221 152.772 217.633 152.79 217.458C152.79 217.301 152.737 217.196 152.633 217.249C152.545 217.319 152.476 217.196 152.476 217.004C152.476 216.795 152.51 216.638 152.545 216.638C152.65 216.638 153.697 218.471 153.697 218.628C153.697 218.698 153.61 218.698 153.488 218.628C153.366 218.558 153.348 218.575 153.418 218.715C153.488 218.82 153.61 218.872 153.68 218.837C153.75 218.785 154.134 219.378 154.553 220.146C154.954 220.897 155.338 221.525 155.373 221.525C155.425 221.525 155.425 221.473 155.391 221.386C154.657 220.111 153.558 217.458 153.628 217.214C153.715 216.952 153.697 216.935 153.54 217.162C153.331 217.441 153.313 217.388 153.261 216.411C153.226 215.765 153.244 215.783 153.924 217.022C154.308 217.72 154.727 218.523 154.849 218.82ZM196.183 217.528C196.13 217.615 196.008 217.65 195.921 217.58C195.834 217.528 195.799 217.406 195.868 217.319C195.921 217.231 196.043 217.196 196.13 217.266C196.218 217.319 196.252 217.441 196.183 217.528ZM156.525 219.151C156.473 219.239 156.368 219.169 156.298 218.977C156.089 218.436 156.124 218.296 156.385 218.645C156.525 218.837 156.595 219.064 156.525 219.151ZM156.787 219.64C156.735 219.78 156.682 219.727 156.682 219.535C156.665 219.343 156.717 219.239 156.769 219.308C156.822 219.361 156.839 219.518 156.787 219.64ZM157.206 220.251C157.031 220.548 157.031 220.53 157.014 220.199C157.014 219.797 157.241 219.483 157.328 219.762C157.363 219.867 157.311 220.077 157.206 220.251ZM160.575 223.533C160.627 223.672 160.592 223.794 160.505 223.794C160.4 223.794 160.33 223.672 160.33 223.533C160.33 223.393 160.365 223.271 160.4 223.271C160.435 223.271 160.505 223.393 160.575 223.533ZM164.345 229.205C164.45 229.397 164.485 229.555 164.45 229.555C164.397 229.555 164.275 229.397 164.17 229.205C164.066 229.013 164.031 228.856 164.066 228.856C164.118 228.856 164.24 229.013 164.345 229.205ZM165.445 231.038C165.392 231.195 165.305 231.283 165.27 231.23C165.218 231.178 165.235 231.073 165.305 230.968C165.462 230.689 165.567 230.741 165.445 231.038ZM165.724 231.771C165.724 232.208 165.706 232.208 165.584 231.911C165.497 231.719 165.462 231.509 165.514 231.422C165.654 231.178 165.741 231.3 165.724 231.771ZM158.288 235.227C158.236 235.384 158.148 235.472 158.113 235.419C158.061 235.367 158.079 235.262 158.148 235.158C158.305 234.878 158.41 234.931 158.288 235.227ZM158.794 236.344C158.742 236.502 158.777 236.554 158.899 236.467C159.039 236.379 159.073 236.449 158.986 236.641C158.899 236.868 158.812 236.816 158.585 236.344C158.41 236.03 158.323 235.646 158.375 235.524C158.445 235.332 158.515 235.384 158.672 235.681C158.794 235.908 158.847 236.205 158.794 236.344ZM174.189 239.731C174.329 240.097 174.381 240.342 174.294 240.289C174.224 240.237 174.102 240.307 174.05 240.411C173.997 240.534 173.997 240.446 174.05 240.219C174.12 239.958 174.085 239.853 173.98 239.923C173.875 239.993 173.84 239.888 173.91 239.643C173.98 239.364 173.945 239.312 173.771 239.417C173.613 239.504 173.579 239.486 173.666 239.347C173.736 239.242 173.701 238.998 173.579 238.841C173.369 238.579 173.387 238.561 173.631 238.806C173.788 238.945 174.032 239.364 174.189 239.731ZM218.228 240.761C218.176 240.9 218.123 240.848 218.123 240.656C218.106 240.464 218.158 240.359 218.211 240.429C218.263 240.481 218.281 240.638 218.228 240.761ZM174.818 241.668C174.661 241.808 174.626 241.773 174.678 241.511C174.713 241.302 174.643 241.179 174.521 241.197C174.259 241.249 174.259 241.214 174.416 240.813C174.504 240.551 174.556 240.586 174.765 240.987C174.957 241.354 174.975 241.511 174.818 241.668ZM221.161 242.471C221.213 242.558 221.108 242.646 220.899 242.646C220.689 242.646 220.585 242.558 220.637 242.471C220.689 242.366 220.811 242.297 220.899 242.297C220.986 242.297 221.108 242.366 221.161 242.471ZM168.36 251.635C168.36 251.722 168.272 251.687 168.185 251.548C168.098 251.408 168.01 251.199 168.01 251.111C168.01 251.007 168.098 251.059 168.185 251.199C168.272 251.338 168.36 251.53 168.36 251.635ZM170.698 255.492C170.751 255.632 170.733 255.702 170.629 255.65C170.524 255.597 170.454 255.475 170.454 255.37C170.454 255.126 170.576 255.178 170.698 255.492Z" fill="white"/>
<path d="M157.869 224.37C158.096 224.929 159.3 227.163 159.492 227.373C159.597 227.46 159.266 226.744 158.759 225.749C157.887 224.056 157.538 223.515 157.869 224.37Z" fill="white"/>
<path d="M159.981 228.49C159.981 228.595 160.051 228.717 160.156 228.769C160.26 228.822 160.278 228.752 160.225 228.612C160.103 228.298 159.981 228.246 159.981 228.49Z" fill="white"/>
<path d="M161.308 229.083C161.36 229.258 161.465 229.345 161.517 229.293C161.57 229.24 161.517 229.101 161.395 228.979C161.221 228.821 161.203 228.839 161.308 229.083Z" fill="white"/>
<path d="M161.727 230.061C161.727 230.165 161.796 230.288 161.901 230.34C162.006 230.392 162.023 230.323 161.971 230.183C161.849 229.869 161.727 229.816 161.727 230.061Z" fill="white"/>
<path d="M161.046 230.427C161.29 230.968 161.378 231.056 161.378 230.846C161.378 230.741 161.255 230.514 161.098 230.322C160.854 230.008 160.854 230.008 161.046 230.427Z" fill="white"/>
<path d="M166.562 236.275C166.719 236.606 166.876 236.851 166.928 236.816C166.998 236.728 166.474 235.664 166.352 235.664C166.3 235.664 166.405 235.943 166.562 236.275Z" fill="white"/>
<path d="M167.26 237.671C167.417 238.003 167.574 238.247 167.626 238.212C167.696 238.125 167.173 237.06 167.05 237.06C166.998 237.06 167.103 237.34 167.26 237.671Z" fill="white"/>
<path d="M168.01 239.067C168.01 239.155 168.098 239.364 168.185 239.504C168.272 239.643 168.36 239.678 168.36 239.591C168.36 239.486 168.272 239.294 168.185 239.155C168.098 239.015 168.01 238.963 168.01 239.067Z" fill="white"/>
<path d="M186.6 281.046C186.757 281.326 186.914 281.57 186.967 281.57C187.001 281.57 186.932 281.326 186.775 281.046C186.617 280.75 186.46 280.523 186.408 280.523C186.373 280.523 186.443 280.75 186.6 281.046Z" fill="white"/>
<path d="M187.054 281.832C187.246 282.338 188.66 284.887 188.712 284.834C188.782 284.764 187.298 281.937 187.106 281.762C187.036 281.71 187.019 281.727 187.054 281.832Z" fill="white"/>
<path d="M188.171 282.443C188.328 282.722 188.485 282.967 188.537 282.967C188.572 282.967 188.502 282.722 188.345 282.443C188.188 282.146 188.031 281.919 187.979 281.919C187.944 281.919 188.014 282.146 188.171 282.443Z" fill="white"/>
<path d="M192.622 289.425C192.622 289.512 192.709 289.599 192.814 289.599C192.901 289.599 192.936 289.512 192.884 289.425C192.831 289.32 192.744 289.25 192.692 289.25C192.657 289.25 192.622 289.32 192.622 289.425Z" fill="white"/>
<path d="M181.224 173.367C181.346 173.489 181.486 173.542 181.538 173.489C181.59 173.437 181.503 173.332 181.328 173.28C181.084 173.175 181.067 173.193 181.224 173.367Z" fill="white"/>
<path d="M128.527 184.294C128.65 184.346 128.807 184.329 128.859 184.277C128.929 184.224 128.824 184.172 128.632 184.189C128.44 184.189 128.388 184.242 128.527 184.294Z" fill="white"/>
<path d="M172.985 197.263C173.16 197.455 173.334 197.612 173.387 197.612C173.439 197.612 173.334 197.455 173.16 197.263C172.985 197.071 172.811 196.914 172.758 196.914C172.706 196.914 172.811 197.071 172.985 197.263Z" fill="white"/>
<path d="M181.451 202.325C181.451 202.412 181.538 202.5 181.643 202.5C181.73 202.5 181.765 202.412 181.713 202.325C181.66 202.22 181.573 202.15 181.521 202.15C181.486 202.15 181.451 202.22 181.451 202.325Z" fill="white"/>
<path d="M181.974 202.779C181.974 202.919 183.022 203.896 183.161 203.896C183.214 203.896 183.004 203.617 182.673 203.285C182.062 202.657 181.974 202.587 181.974 202.779Z" fill="white"/>
<path d="M167.05 204.07C167.417 204.454 167.766 204.769 167.818 204.769C167.871 204.769 167.592 204.454 167.225 204.07C166.858 203.686 166.509 203.372 166.457 203.372C166.405 203.372 166.684 203.686 167.05 204.07Z" fill="white"/>
<path d="M168.779 205.694C169.18 206.095 169.896 206.776 170.367 207.212C170.856 207.631 170.576 207.3 169.756 206.462C168.936 205.624 168.22 204.943 168.168 204.943C168.115 204.943 168.395 205.275 168.779 205.694Z" fill="white"/>
<path d="M187.909 207.474C188.136 207.718 188.363 207.91 188.398 207.91C188.45 207.91 188.311 207.718 188.084 207.474C187.857 207.23 187.63 207.038 187.595 207.038C187.543 207.038 187.682 207.23 187.909 207.474Z" fill="white"/>
<path d="M173.771 209.481C173.771 209.568 173.858 209.656 173.963 209.656C174.05 209.656 174.085 209.568 174.032 209.481C173.98 209.376 173.893 209.307 173.84 209.307C173.805 209.307 173.771 209.376 173.771 209.481Z" fill="white"/>
<path d="M172.898 209.743C173.02 209.9 173.159 209.97 173.194 209.935C173.317 209.813 173.072 209.481 172.863 209.481C172.758 209.481 172.758 209.586 172.898 209.743Z" fill="white"/>
<path d="M190.702 210.267C190.929 210.511 191.155 210.703 191.19 210.703C191.243 210.703 191.103 210.511 190.876 210.267C190.649 210.022 190.422 209.83 190.387 209.83C190.335 209.83 190.475 210.022 190.702 210.267Z" fill="white"/>
<path d="M191.924 211.663C192.15 211.908 192.377 212.1 192.412 212.1C192.465 212.1 192.325 211.908 192.098 211.663C191.871 211.419 191.644 211.227 191.609 211.227C191.557 211.227 191.697 211.419 191.924 211.663Z" fill="white"/>
<path d="M197.16 218.855C197.16 218.959 197.439 219.343 197.789 219.71C198.382 220.356 198.399 220.356 198.155 219.867C197.858 219.291 197.16 218.575 197.16 218.855Z" fill="white"/>
<path d="M184.593 222.311C184.82 222.555 185.047 222.747 185.081 222.747C185.134 222.747 184.994 222.555 184.767 222.311C184.54 222.066 184.313 221.874 184.279 221.874C184.226 221.874 184.366 222.066 184.593 222.311Z" fill="white"/>
<path d="M202.92 222.992C202.92 223.026 203.06 223.166 203.234 223.288C203.496 223.515 203.514 223.498 203.287 223.218C203.06 222.939 202.92 222.852 202.92 222.992Z" fill="white"/>
<path d="M205.451 225.714C205.626 225.906 205.8 226.063 205.853 226.063C205.905 226.063 205.8 225.906 205.626 225.714C205.451 225.522 205.277 225.365 205.224 225.365C205.172 225.365 205.277 225.522 205.451 225.714Z" fill="white"/>
<path d="M203.618 225.715C203.618 225.802 203.706 225.889 203.793 225.889C203.898 225.889 203.968 225.802 203.968 225.715C203.968 225.61 203.898 225.54 203.793 225.54C203.706 225.54 203.618 225.61 203.618 225.715Z" fill="white"/>
<path d="M206.324 226.587C206.498 226.779 206.673 226.936 206.725 226.936C206.778 226.936 206.673 226.779 206.498 226.587C206.324 226.395 206.149 226.238 206.097 226.238C206.045 226.238 206.149 226.395 206.324 226.587Z" fill="white"/>
<path d="M211.648 232.26C211.875 232.504 212.102 232.696 212.136 232.696C212.189 232.696 212.049 232.504 211.822 232.26C211.595 232.016 211.368 231.824 211.334 231.824C211.281 231.824 211.421 232.016 211.648 232.26Z" fill="white"/>
<path d="M198.208 233.482C198.434 233.726 198.661 233.918 198.696 233.918C198.749 233.918 198.609 233.726 198.382 233.482C198.155 233.237 197.928 233.045 197.893 233.045C197.841 233.045 197.981 233.237 198.208 233.482Z" fill="white"/>
<path d="M201.559 236.624C202.117 237.2 202.589 237.619 202.624 237.584C202.659 237.532 202.222 237.078 201.629 236.554L200.564 235.594L201.559 236.624Z" fill="white"/>
<path d="M215.139 236.065C215.139 236.1 215.4 236.345 215.715 236.641L216.273 237.147L215.767 236.571C215.278 236.048 215.139 235.926 215.139 236.065Z" fill="white"/>
<path d="M204.491 239.312C205.399 240.202 206.638 241.354 207.232 241.895C207.843 242.419 208.279 242.925 208.227 243.012C208.174 243.099 208.192 243.152 208.279 243.134C208.366 243.099 208.698 243.291 209.012 243.553C209.606 244.059 209.606 244.182 209.012 243.867C208.838 243.763 208.68 243.728 208.68 243.78C208.68 243.833 208.907 243.972 209.187 244.094C209.763 244.339 212.171 246.538 212.171 246.817C212.171 246.922 212.259 247.027 212.346 247.027C212.451 247.044 212.59 247.062 212.695 247.079C212.782 247.079 212.957 247.219 213.079 247.358C213.271 247.568 213.271 247.568 212.974 247.358C212.66 247.114 212.66 247.114 212.87 247.481C213.009 247.673 213.201 247.812 213.323 247.76C213.428 247.725 213.585 247.777 213.673 247.9C213.742 248.022 213.725 248.074 213.603 247.987C213.498 247.934 213.358 247.969 213.289 248.092C213.219 248.214 213.219 248.266 213.289 248.196C213.358 248.144 213.673 248.196 213.987 248.318C214.301 248.458 214.737 248.51 214.964 248.458C215.244 248.388 215.331 248.406 215.244 248.563C215.174 248.668 215.034 248.72 214.929 248.65C214.825 248.58 214.79 248.702 214.825 248.947C214.842 249.174 214.912 249.331 214.964 249.278C215.017 249.244 215.244 249.331 215.488 249.505C216.064 249.907 216.308 249.889 215.924 249.453C215.628 249.121 215.628 249.086 215.907 248.79C216.169 248.476 216.134 248.406 214.912 247.254C212.66 245.124 212.014 244.566 211.892 244.566C211.805 244.566 212.084 244.88 212.486 245.246C212.887 245.63 213.219 245.962 213.219 246.014C213.219 246.294 212.276 245.822 211.979 245.403C211.718 245.037 211.526 244.932 211.281 245.002C211.089 245.072 210.95 245.037 210.95 244.932C210.95 244.827 211.037 244.74 211.159 244.74C211.264 244.74 211.211 244.583 211.037 244.391C210.793 244.129 210.688 244.094 210.583 244.251C210.478 244.409 210.339 244.356 210.007 244.059C209.763 243.833 209.606 243.571 209.675 243.466C209.728 243.361 209.693 243.344 209.571 243.414C209.448 243.501 209.239 243.414 209.064 243.204C208.907 243.03 208.384 242.541 207.895 242.122C207.424 241.721 206.481 240.9 205.8 240.307C203.13 237.95 202.903 237.776 204.491 239.312ZM210.95 244.566C210.95 244.653 210.88 244.74 210.775 244.74C210.688 244.74 210.601 244.653 210.601 244.566C210.601 244.461 210.688 244.391 210.775 244.391C210.88 244.391 210.95 244.461 210.95 244.566ZM214.109 246.957C214.336 247.236 214.318 247.254 214.057 247.027C213.882 246.905 213.742 246.765 213.742 246.73C213.742 246.59 213.882 246.678 214.109 246.957Z" fill="white"/>
<path d="M175.533 242.384C175.533 242.471 175.725 242.908 175.952 243.344C176.179 243.78 176.371 244.042 176.371 243.955C176.371 243.85 176.179 243.431 175.952 242.995C175.725 242.559 175.533 242.279 175.533 242.384Z" fill="white"/>
<path d="M206.76 242.715C206.76 242.75 206.9 242.89 207.074 243.012C207.336 243.239 207.354 243.222 207.127 242.942C206.9 242.663 206.76 242.576 206.76 242.715Z" fill="white"/>
<path d="M221.231 243.536C220.969 243.763 220.916 243.885 221.074 243.867C221.545 243.798 221.789 243.867 221.684 244.025C221.632 244.112 221.667 244.234 221.772 244.304C221.859 244.356 221.946 244.496 221.946 244.601C221.946 244.705 221.842 244.705 221.684 244.566C221.527 244.444 221.37 244.374 221.335 244.426C221.161 244.601 221.807 244.985 222.243 245.002C222.802 245.002 223.203 245.543 222.819 245.788C222.54 245.962 222.47 245.84 223.919 247.446C224.25 247.83 224.547 248.214 224.547 248.284C224.547 248.353 224.826 248.703 225.158 249.069C225.786 249.732 225.874 250.099 225.263 249.54C225.071 249.366 224.914 249.261 224.914 249.313C224.914 249.505 226.031 250.675 226.188 250.675C226.293 250.675 226.223 250.518 226.048 250.326C225.874 250.134 225.804 249.977 225.891 249.977C226.118 249.994 226.659 250.78 226.746 251.233C226.799 251.425 226.869 251.635 226.938 251.705C228.055 252.787 231.354 256.4 231.529 256.749C231.669 257.011 231.878 257.29 232 257.36C232.14 257.43 232.419 257.831 232.611 258.233C232.821 258.634 233.135 259.158 233.309 259.385C233.693 259.856 233.728 260.572 233.432 261.235C233.205 261.724 233.065 261.776 232.733 261.445C232.245 260.973 231.494 260.45 231.302 260.45C231.197 260.45 231.581 260.886 232.14 261.41C233.781 262.928 233.17 262.684 231.389 261.095C228.824 258.826 228.387 258.53 229.888 260.066C231.267 261.497 231.564 262.038 230.36 260.903C229.714 260.327 228.335 259.106 227.148 258.093C226.519 257.535 224.722 255.964 223.692 255.056C223.36 254.742 222.452 253.974 221.702 253.328C220.934 252.682 219.991 251.862 219.625 251.495C218.961 250.884 218.473 250.623 218.717 251.024C218.769 251.111 218.752 251.199 218.647 251.199C218.543 251.199 218.508 251.321 218.56 251.46C218.717 251.844 218.473 251.775 218.089 251.321C217.705 250.867 217.67 250.657 218.001 250.78C218.543 250.989 218.455 250.448 217.844 249.889C217.094 249.156 216.832 249.121 216.989 249.715C217.094 250.134 217.059 250.151 216.623 250.081L216.134 249.994L216.535 250.413C216.745 250.64 217.233 251.041 217.617 251.321C218.228 251.74 218.298 251.844 218.211 252.316C218.159 252.612 218.176 252.752 218.246 252.647C218.351 252.473 218.525 252.49 219.031 252.735C219.642 253.014 219.677 253.066 219.59 253.607C219.52 253.939 219.555 254.166 219.642 254.096C219.869 253.956 220.55 254.498 220.55 254.812C220.55 254.969 220.602 255.039 220.655 254.986C220.812 254.829 221.458 255.196 221.335 255.388C221.283 255.475 221.615 255.842 222.068 256.208C222.889 256.854 223.535 257.412 224.303 258.093C224.512 258.285 225.141 258.826 225.699 259.315C226.275 259.786 226.851 260.31 227.008 260.45C227.148 260.589 227.706 261.061 228.23 261.497C228.754 261.933 229.312 262.387 229.452 262.527C229.592 262.666 231.25 264.01 233.117 265.494C240.012 271.01 243.329 273.035 244.201 272.319C244.515 272.057 244.533 271.062 244.236 270.224C243.87 269.212 240.64 264.656 238.808 262.544C238.511 262.195 237.987 261.567 237.656 261.148C237.324 260.729 236.207 259.402 235.177 258.198C233.379 256.103 232.733 255.353 230.255 252.508C229.679 251.827 228.824 250.902 228.37 250.448C227.898 249.994 227.532 249.558 227.532 249.471C227.532 249.401 227.061 248.912 226.485 248.406C225.909 247.9 225.437 247.376 225.437 247.271C225.437 247.044 224.879 246.486 224.669 246.486C224.599 246.486 224.599 246.59 224.669 246.695C224.757 246.852 224.704 246.835 224.512 246.678C224.268 246.486 224.25 246.381 224.425 246.189C224.582 245.997 224.565 245.962 224.373 245.997C224.233 246.032 224.146 245.945 224.18 245.805C224.233 245.596 224.18 245.596 223.954 245.788C223.727 245.98 223.692 245.962 223.779 245.753C223.831 245.613 223.709 245.281 223.5 245.02C223.203 244.636 223.081 244.583 222.871 244.775C222.644 244.95 222.627 244.915 222.662 244.531C222.714 244.217 222.592 243.92 222.313 243.623C221.789 243.082 221.754 243.065 221.231 243.536ZM222.313 243.815C222.627 244.164 222.644 244.217 222.383 244.042C221.824 243.623 221.562 243.344 221.737 243.344C221.807 243.344 222.068 243.553 222.313 243.815ZM223.29 245.194C223.133 245.351 222.802 245.089 222.924 244.88C222.994 244.775 223.098 244.775 223.22 244.897C223.325 245.002 223.36 245.124 223.29 245.194ZM219.171 252.019C218.961 252.368 218.927 252.263 219.084 251.809C219.153 251.652 219.241 251.565 219.276 251.617C219.328 251.652 219.276 251.844 219.171 252.019ZM219.991 252.525C219.922 252.577 219.782 252.438 219.677 252.211C219.468 251.827 219.468 251.827 219.782 252.106C219.956 252.281 220.044 252.455 219.991 252.525ZM222.034 255.876C221.981 255.929 221.842 255.876 221.719 255.754C221.562 255.58 221.58 255.562 221.824 255.667C221.999 255.719 222.086 255.824 222.034 255.876ZM231.634 261.846C231.686 261.933 231.651 262.021 231.564 262.021C231.459 262.021 231.372 261.933 231.372 261.846C231.372 261.741 231.407 261.671 231.442 261.671C231.494 261.671 231.581 261.741 231.634 261.846Z" fill="white"/>
<path d="M162.355 243.571C162.407 243.745 162.512 243.833 162.565 243.78C162.617 243.728 162.565 243.588 162.442 243.466C162.268 243.309 162.25 243.326 162.355 243.571Z" fill="white"/>
<path d="M211.124 244.042C211.229 244.234 211.403 244.391 211.508 244.391C211.613 244.391 211.561 244.234 211.386 244.042C211.211 243.85 211.037 243.693 211.002 243.693C210.967 243.693 211.019 243.85 211.124 244.042Z" fill="white"/>
<path d="M162.774 244.391C162.879 244.583 163.001 244.74 163.053 244.74C163.088 244.74 163.053 244.583 162.949 244.391C162.844 244.199 162.722 244.042 162.669 244.042C162.634 244.042 162.669 244.199 162.774 244.391Z" fill="white"/>
<path d="M163.298 245.264C163.402 245.456 163.524 245.613 163.577 245.613C163.612 245.613 163.577 245.456 163.472 245.264C163.367 245.072 163.245 244.915 163.193 244.915C163.158 244.915 163.193 245.072 163.298 245.264Z" fill="white"/>
<path d="M177.192 246.014C177.244 246.189 177.349 246.276 177.401 246.224C177.454 246.172 177.401 246.032 177.279 245.91C177.104 245.753 177.087 245.77 177.192 246.014Z" fill="white"/>
<path d="M225.786 247.603C225.786 247.638 225.926 247.777 226.1 247.9C226.362 248.126 226.38 248.109 226.153 247.83C225.926 247.55 225.786 247.463 225.786 247.603Z" fill="white"/>
<path d="M214.022 248.79C214.074 248.877 214.196 248.894 214.283 248.842C214.51 248.685 214.475 248.633 214.179 248.633C214.039 248.633 213.969 248.702 214.022 248.79Z" fill="white"/>
<path d="M226.31 250.832C226.31 250.937 226.38 251.059 226.484 251.111C226.589 251.164 226.607 251.094 226.554 250.954C226.432 250.64 226.31 250.588 226.31 250.832Z" fill="white"/>
<path d="M182.254 256.836C182.306 257.011 182.411 257.098 182.463 257.046C182.516 256.994 182.463 256.854 182.341 256.732C182.166 256.575 182.149 256.592 182.254 256.836Z" fill="white"/>
<path d="M227.828 258.198C228.038 258.407 228.247 258.564 228.3 258.512C228.335 258.477 228.16 258.285 227.916 258.111L227.444 257.779L227.828 258.198Z" fill="white"/>
<path d="M183.842 260.642C183.964 260.764 184.104 260.816 184.156 260.764C184.208 260.711 184.121 260.607 183.947 260.554C183.702 260.45 183.685 260.467 183.842 260.642Z" fill="white"/>
</svg>
